<?xml version="1.0" encoding="UTF-8" standalone="no"?>
<!DOCTYPE svg PUBLIC "-//W3C//DTD SVG 1.1//EN"
 "http://www.w3.org/Graphics/SVG/1.1/DTD/svg11.dtd">
<!-- Generated by graphviz version 14.1.5 (20260411.2331)
 -->
<!-- Pages: 1 -->
<svg width="1488pt" height="855pt"
 viewBox="0.00 0.00 1488.00 855.00" xmlns="http://www.w3.org/2000/svg" xmlns:xlink="http://www.w3.org/1999/xlink">
<g id="graph0" class="graph" transform="scale(1 1) rotate(0) translate(4 851.19)">
<polygon fill="white" stroke="none" points="-4,4 -4,-851.19 1484.32,-851.19 1484.32,4 -4,4"/>
<!-- tests.test_apps.cliapp.inner1.inner2.flask -->
<g id="node1" class="node">
<title>tests.test_apps.cliapp.inner1.inner2.flask</title>
<g id="a_node1"><a xlink:title="tests.test_apps.cliapp.inner1.inner2.flask&#10;Incoming: 44&#10;Outgoing: 1&#10;Centrality: 0.549">
<ellipse fill="#ff6b6b" stroke="#ff6b6b" cx="42.08" cy="-544" rx="29.11" ry="18"/>
<text xml:space="preserve" text-anchor="middle" x="42.08" y="-538.58" font-family="Arial" font-size="14.00">flask</text>
</a>
</g>
</g>
<!-- tests.test_apps.cliapp.inner1.inner2.flask&#45;&gt;tests.test_apps.cliapp.inner1.inner2.flask -->
<g id="edge51" class="edge">
<title>tests.test_apps.cliapp.inner1.inner2.flask&#45;&gt;tests.test_apps.cliapp.inner1.inner2.flask</title>
<path fill="none" stroke="#666666" d="M42.08,-544C42.08,-544 42.08,-544 42.08,-544"/>
<polygon fill="#666666" stroke="#666666" points="42.94,-544.86 57.44,-550.36 47.08,-549 52.94,-554.86 52.94,-554.86 52.94,-554.86 47.08,-549 48.44,-559.36 42.94,-544.86"/>
</g>
<!-- src.flask.sansio.app -->
<g id="node2" class="node">
<title>src.flask.sansio.app</title>
<g id="a_node2"><a xlink:title="src.flask.sansio.app&#10;Incoming: 14&#10;Outgoing: 11&#10;Centrality: 0.305">
<ellipse fill="#ff6b6b" stroke="#ff6b6b" cx="147.16" cy="-58" rx="27" ry="18"/>
<text xml:space="preserve" text-anchor="middle" x="147.16" y="-52.58" font-family="Arial" font-size="14.00">app</text>
</a>
</g>
</g>
<!-- src.flask.typing -->
<g id="node4" class="node">
<title>src.flask.typing</title>
<g id="a_node4"><a xlink:title="src.flask.typing&#10;Incoming: 23&#10;Outgoing: 1&#10;Centrality: 0.293">
<ellipse fill="#ff6b6b" stroke="#ff6b6b" cx="1445.73" cy="-369" rx="34.6" ry="18"/>
<text xml:space="preserve" text-anchor="middle" x="1445.73" y="-363.58" font-family="Arial" font-size="14.00">typing</text>
</a>
</g>
</g>
<!-- src.flask.sansio.app&#45;&gt;src.flask.typing -->
<g id="edge52" class="edge">
<title>src.flask.sansio.app&#45;&gt;src.flask.typing</title>
<path fill="none" stroke="#666666" d="M173.97,-54.09C845.98,43.8 866.75,40.81 1410.99,-344.4"/>
<polygon fill="#666666" stroke="#666666" points="1418.86,-349.97 1408.09,-347.87 1415.77,-347.79 1410.69,-344.19 1410.69,-344.19 1410.69,-344.19 1415.77,-347.79 1413.29,-340.52 1418.86,-349.97"/>
</g>
<!-- src.flask.helpers -->
<g id="node6" class="node">
<title>src.flask.helpers</title>
<g id="a_node6"><a xlink:title="src.flask.helpers&#10;Incoming: 10&#10;Outgoing: 4&#10;Centrality: 0.171">
<ellipse fill="#ffa500" stroke="#ffa500" cx="250.25" cy="-794" rx="40.09" ry="18"/>
<text xml:space="preserve" text-anchor="middle" x="250.25" y="-788.58" font-family="Arial" font-size="14.00">helpers</text>
</a>
</g>
</g>
<!-- src.flask.sansio.app&#45;&gt;src.flask.helpers -->
<g id="edge54" class="edge">
<title>src.flask.sansio.app&#45;&gt;src.flask.helpers</title>
<path fill="none" stroke="#666666" d="M142.18,-75.92C55.61,-387.1 56.86,-401.32 236.64,-766.38"/>
<polygon fill="#666666" stroke="#666666" points="240.93,-775.08 232.47,-768.1 239.26,-771.69 236.51,-766.11 236.51,-766.11 236.51,-766.11 239.26,-771.69 240.55,-764.12 240.93,-775.08"/>
</g>
<!-- src.flask.testing -->
<g id="node8" class="node">
<title>src.flask.testing</title>
<g id="a_node8"><a xlink:title="src.flask.testing&#10;Incoming: 8&#10;Outgoing: 6&#10;Centrality: 0.171">
<ellipse fill="#ffa500" stroke="#ffa500" cx="1232.57" cy="-70" rx="37.09" ry="18"/>
<text xml:space="preserve" text-anchor="middle" x="1232.57" y="-64.58" font-family="Arial" font-size="14.00">testing</text>
</a>
</g>
</g>
<!-- src.flask.sansio.app&#45;&gt;src.flask.testing -->
<g id="edge56" class="edge">
<title>src.flask.sansio.app&#45;&gt;src.flask.testing</title>
<path fill="none" stroke="#ff6b6b" stroke-width="2" d="M174.24,-60.61C318.42,-67.89 996.44,-75.61 1184.24,-72.47"/>
<polygon fill="#ff6b6b" stroke="#ff6b6b" stroke-width="2" points="1192.95,-72.3 1183.03,-76.99 1190.39,-72.85 1182.96,-72.99 1182.95,-72.49 1182.94,-71.99 1190.38,-71.85 1182.86,-67.99 1192.95,-72.3"/>
</g>
<!-- src.flask.ctx -->
<g id="node9" class="node">
<title>src.flask.ctx</title>
<g id="a_node9"><a xlink:title="src.flask.ctx&#10;Incoming: 5&#10;Outgoing: 9&#10;Centrality: 0.171">
<ellipse fill="#ffd700" stroke="#ffd700" cx="1348.13" cy="-270" rx="27" ry="18"/>
<text xml:space="preserve" text-anchor="middle" x="1348.13" y="-264.58" font-family="Arial" font-size="14.00">ctx</text>
</a>
</g>
</g>
<!-- src.flask.sansio.app&#45;&gt;src.flask.ctx -->
<g id="edge53" class="edge">
<title>src.flask.sansio.app&#45;&gt;src.flask.ctx</title>
<path fill="none" stroke="#ff6b6b" stroke-width="2" d="M172.71,-64.7C326.21,-97.88 1125.53,-239.11 1310.08,-265.88"/>
<polygon fill="#ff6b6b" stroke="#ff6b6b" stroke-width="2" points="1318.68,-267.1 1308.15,-270.15 1316.07,-267.24 1308.71,-266.19 1308.78,-265.7 1308.85,-265.2 1316.22,-266.25 1309.41,-261.24 1318.68,-267.1"/>
</g>
<!-- src.flask.templating -->
<g id="node10" class="node">
<title>src.flask.templating</title>
<g id="a_node10"><a xlink:title="src.flask.templating&#10;Incoming: 5&#10;Outgoing: 8&#10;Centrality: 0.159">
<ellipse fill="#ffd700" stroke="#ffd700" cx="1232.57" cy="-392" rx="52.56" ry="18"/>
<text xml:space="preserve" text-anchor="middle" x="1232.57" y="-386.58" font-family="Arial" font-size="14.00">templating</text>
</a>
</g>
</g>
<!-- src.flask.sansio.app&#45;&gt;src.flask.templating -->
<g id="edge55" class="edge">
<title>src.flask.sansio.app&#45;&gt;src.flask.templating</title>
<path fill="none" stroke="#ff6b6b" stroke-width="2" d="M170.71,-67.54C305.63,-115.07 981.26,-323.3 1178.46,-378.63"/>
<polygon fill="#ff6b6b" stroke="#ff6b6b" stroke-width="2" points="1186.78,-380.95 1175.94,-382.6 1184.17,-380.74 1177.01,-378.74 1177.14,-378.26 1177.28,-377.78 1184.44,-379.78 1178.35,-373.93 1186.78,-380.95"/>
</g>
<!-- src.flask.blueprints -->
<g id="node15" class="node">
<title>src.flask.blueprints</title>
<g id="a_node15"><a xlink:title="src.flask.blueprints&#10;Incoming: 3&#10;Outgoing: 7&#10;Centrality: 0.122">
<ellipse fill="#ffd700" stroke="#ffd700" cx="914.44" cy="-728" rx="49.57" ry="18"/>
<text xml:space="preserve" text-anchor="middle" x="914.44" y="-722.58" font-family="Arial" font-size="14.00">blueprints</text>
</a>
</g>
</g>
<!-- src.flask.sansio.app&#45;&gt;src.flask.blueprints -->
<g id="edge57" class="edge">
<title>src.flask.sansio.app&#45;&gt;src.flask.blueprints</title>
<path fill="none" stroke="#ff6b6b" stroke-width="2" d="M169.88,-68.2C706.06,-308.89 721.03,-319.72 901.25,-700.12"/>
<polygon fill="#ff6b6b" stroke="#ff6b6b" stroke-width="2" points="904.9,-707.84 896.55,-700.73 903.35,-705.74 900.17,-699.02 900.62,-698.8 901.07,-698.59 904.26,-705.31 904.69,-696.88 904.9,-707.84"/>
</g>
<!-- src.flask.globals -->
<g id="node3" class="node">
<title>src.flask.globals</title>
<g id="a_node3"><a xlink:title="src.flask.globals&#10;Incoming: 18&#10;Outgoing: 7&#10;Centrality: 0.305">
<ellipse fill="#ff6b6b" stroke="#ff6b6b" cx="365.42" cy="-462" rx="39.09" ry="18"/>
<text xml:space="preserve" text-anchor="middle" x="365.42" y="-456.58" font-family="Arial" font-size="14.00">globals</text>
</a>
</g>
</g>
<!-- src.flask.globals&#45;&gt;src.flask.sansio.app -->
<g id="edge60" class="edge">
<title>src.flask.globals&#45;&gt;src.flask.sansio.app</title>
<path fill="none" stroke="#ff6b6b" stroke-width="2" d="M162.23,-73.09C254.25,-165.5 262.05,-181.18 354.99,-433.63"/>
<polygon fill="#ff6b6b" stroke="#ff6b6b" stroke-width="2" points="357.91,-441.59 350.24,-433.76 356.56,-439.36 353.99,-432.38 354.46,-432.21 354.93,-432.03 357.5,-439.01 358.68,-430.65 357.91,-441.59"/>
</g>
<!-- src.flask.globals&#45;&gt;src.flask.typing -->
<g id="edge58" class="edge">
<title>src.flask.globals&#45;&gt;src.flask.typing</title>
<path fill="none" stroke="#666666" d="M403.96,-457.77C1083.83,-383.1 1122.72,-379.22 1400.02,-370.43"/>
<polygon fill="#666666" stroke="#666666" points="1409.62,-370.13 1399.77,-374.95 1405.84,-370.25 1399.62,-370.45 1399.62,-370.45 1399.62,-370.45 1405.84,-370.25 1399.48,-365.95 1409.62,-370.13"/>
</g>
<!-- src.flask.app -->
<g id="node5" class="node">
<title>src.flask.app</title>
<g id="a_node5"><a xlink:title="src.flask.app&#10;Incoming: 8&#10;Outgoing: 12&#10;Centrality: 0.244">
<ellipse fill="#ffa500" stroke="#ffa500" cx="1117.01" cy="-346" rx="27" ry="18"/>
<text xml:space="preserve" text-anchor="middle" x="1117.01" y="-340.58" font-family="Arial" font-size="14.00">app</text>
</a>
</g>
</g>
<!-- src.flask.globals&#45;&gt;src.flask.app -->
<g id="edge59" class="edge">
<title>src.flask.globals&#45;&gt;src.flask.app</title>
<path fill="none" stroke="#ff6b6b" stroke-width="2" d="M404.48,-459.21C534.89,-443.9 954.26,-379.15 1080.63,-354.79"/>
<polygon fill="#ff6b6b" stroke="#ff6b6b" stroke-width="2" points="1089.2,-353.1 1080.26,-359.45 1086.78,-354.08 1079.49,-355.52 1079.39,-355.03 1079.29,-354.54 1086.59,-353.1 1078.52,-350.62 1089.2,-353.1"/>
</g>
<!-- src.flask.wrappers -->
<g id="node7" class="node">
<title>src.flask.wrappers</title>
<g id="a_node7"><a xlink:title="src.flask.wrappers&#10;Incoming: 10&#10;Outgoing: 4&#10;Centrality: 0.171">
<ellipse fill="#ffa500" stroke="#ffa500" cx="615.23" cy="-694" rx="47.57" ry="18"/>
<text xml:space="preserve" text-anchor="middle" x="615.23" y="-688.58" font-family="Arial" font-size="14.00">wrappers</text>
</a>
</g>
</g>
<!-- src.flask.globals&#45;&gt;src.flask.wrappers -->
<g id="edge63" class="edge">
<title>src.flask.globals&#45;&gt;src.flask.wrappers</title>
<path fill="none" stroke="#ff6b6b" stroke-width="2" d="M378.68,-479.07C417.13,-520.22 528.77,-624.36 583.86,-670.97"/>
<polygon fill="#ff6b6b" stroke="#ff6b6b" stroke-width="2" points="590.32,-676.37 579.77,-673.41 588.04,-675.11 582.33,-670.34 582.65,-669.96 582.97,-669.58 588.68,-674.35 585.54,-666.51 590.32,-676.37"/>
</g>
<!-- src.flask.globals&#45;&gt;src.flask.ctx -->
<g id="edge61" class="edge">
<title>src.flask.globals&#45;&gt;src.flask.ctx</title>
<path fill="none" stroke="#ff6b6b" stroke-width="2" d="M403.58,-457.4C561.04,-432.01 1159.11,-315.15 1312.25,-279.83"/>
<polygon fill="#ff6b6b" stroke="#ff6b6b" stroke-width="2" points="1320.52,-277.89 1311.81,-284.55 1318.14,-278.96 1310.9,-280.66 1310.78,-280.17 1310.67,-279.68 1317.91,-277.99 1309.76,-275.79 1320.52,-277.89"/>
</g>
<!-- src.flask.sessions -->
<g id="node11" class="node">
<title>src.flask.sessions</title>
<g id="a_node11"><a xlink:title="src.flask.sessions&#10;Incoming: 6&#10;Outgoing: 6&#10;Centrality: 0.146">
<ellipse fill="#ffa500" stroke="#ffa500" cx="486.09" cy="-175" rx="45.57" ry="18"/>
<text xml:space="preserve" text-anchor="middle" x="486.09" y="-169.58" font-family="Arial" font-size="14.00">sessions</text>
</a>
</g>
</g>
<!-- src.flask.globals&#45;&gt;src.flask.sessions -->
<g id="edge62" class="edge">
<title>src.flask.globals&#45;&gt;src.flask.sessions</title>
<path fill="none" stroke="#ff6b6b" stroke-width="2" d="M365.2,-443.58C363.87,-324.48 368.25,-311.2 463.63,-200.88"/>
<polygon fill="#ff6b6b" stroke="#ff6b6b" stroke-width="2" points="469.37,-194.26 466.23,-204.76 468.07,-196.52 463.2,-202.14 462.82,-201.82 462.45,-201.49 467.31,-195.87 459.42,-198.87 469.37,-194.26"/>
</g>
<!-- src.flask.typing&#45;&gt;src.flask.typing -->
<g id="edge64" class="edge">
<title>src.flask.typing&#45;&gt;src.flask.typing</title>
<path fill="none" stroke="#666666" d="M1445.73,-369C1445.73,-369 1445.73,-369 1445.73,-369"/>
<polygon fill="#666666" stroke="#666666" points="1446.59,-369.86 1461.09,-375.36 1450.73,-374 1456.59,-379.86 1456.59,-379.86 1456.59,-379.86 1450.73,-374 1452.09,-384.36 1446.59,-369.86"/>
</g>
<!-- src.flask.app&#45;&gt;src.flask.sansio.app -->
<g id="edge18" class="edge">
<title>src.flask.app&#45;&gt;src.flask.sansio.app</title>
<path fill="none" stroke="#ff6b6b" stroke-width="2" d="M166.65,-70.71C429.72,-242.17 449.57,-247.62 1079.64,-340.49"/>
<polygon fill="#ff6b6b" stroke="#ff6b6b" stroke-width="2" points="1087.96,-341.72 1077.41,-344.71 1085.35,-341.84 1077.99,-340.76 1078.06,-340.26 1078.14,-339.77 1085.49,-340.85 1078.72,-335.81 1087.96,-341.72"/>
</g>
<!-- src.flask.app&#45;&gt;src.flask.globals -->
<g id="edge16" class="edge">
<title>src.flask.app&#45;&gt;src.flask.globals</title>
<path fill="none" stroke="#ff6b6b" stroke-width="2" d="M400.15,-453.54C524.77,-429.37 949.02,-363.86 1078.91,-348.68"/>
<polygon fill="#ff6b6b" stroke="#ff6b6b" stroke-width="2" points="1087.42,-347.72 1077.99,-353.31 1084.93,-348.51 1077.54,-349.34 1077.49,-348.84 1077.43,-348.35 1084.82,-347.51 1076.98,-344.37 1087.42,-347.72"/>
</g>
<!-- src.flask.app&#45;&gt;src.flask.typing -->
<g id="edge13" class="edge">
<title>src.flask.app&#45;&gt;src.flask.typing</title>
<path fill="none" stroke="#666666" d="M1144.45,-346.39C1310.09,-348.74 1342.86,-349.69 1401.24,-360.34"/>
<polygon fill="#666666" stroke="#666666" points="1410.86,-362.14 1400.21,-364.72 1407.15,-361.44 1401.04,-360.3 1401.04,-360.3 1401.04,-360.3 1407.15,-361.44 1401.86,-355.88 1410.86,-362.14"/>
</g>
<!-- src.flask.app&#45;&gt;src.flask.helpers -->
<g id="edge17" class="edge">
<title>src.flask.app&#45;&gt;src.flask.helpers</title>
<path fill="none" stroke="#666666" d="M285.12,-784.9C851.6,-637.03 872.42,-627.66 1096.4,-369.76"/>
<polygon fill="#666666" stroke="#666666" points="1102.62,-362.59 1099.47,-373.09 1100.14,-365.44 1096.07,-370.14 1096.07,-370.14 1096.07,-370.14 1100.14,-365.44 1092.67,-367.19 1102.62,-362.59"/>
</g>
<!-- src.flask.app&#45;&gt;src.flask.wrappers -->
<g id="edge21" class="edge">
<title>src.flask.app&#45;&gt;src.flask.wrappers</title>
<path fill="none" stroke="#ff6b6b" stroke-width="2" d="M647.06,-680.32C970.81,-541.09 990.06,-529.4 1099.29,-371.68"/>
<polygon fill="#ff6b6b" stroke="#ff6b6b" stroke-width="2" points="1104.2,-364.58 1102.21,-375.36 1103.15,-366.97 1098.92,-373.09 1098.51,-372.8 1098.1,-372.52 1102.33,-366.4 1094.81,-370.24 1104.2,-364.58"/>
</g>
<!-- src.flask.app&#45;&gt;src.flask.testing -->
<g id="edge22" class="edge">
<title>src.flask.app&#45;&gt;src.flask.testing</title>
<path fill="none" stroke="#ff6b6b" stroke-width="2" d="M1127.87,-329.27C1151.41,-283.49 1205.03,-155.96 1225.17,-98.59"/>
<polygon fill="#ff6b6b" stroke="#ff6b6b" stroke-width="2" points="1227.94,-90.4 1228.99,-101.31 1227.59,-92.99 1225.21,-100.03 1224.73,-99.87 1224.26,-99.71 1226.65,-92.66 1220.47,-98.42 1227.94,-90.4"/>
</g>
<!-- src.flask.app&#45;&gt;src.flask.ctx -->
<g id="edge15" class="edge">
<title>src.flask.app&#45;&gt;src.flask.ctx</title>
<path fill="none" stroke="#ff6b6b" stroke-width="2" d="M1143.56,-341.9C1186.4,-330.93 1270.55,-303.43 1316.45,-285.58"/>
<polygon fill="#ff6b6b" stroke="#ff6b6b" stroke-width="2" points="1324.45,-282.39 1316.83,-290.28 1322.25,-283.81 1315.35,-286.56 1315.16,-286.1 1314.98,-285.63 1321.88,-282.88 1313.49,-281.92 1324.45,-282.39"/>
</g>
<!-- src.flask.app&#45;&gt;src.flask.templating -->
<g id="edge20" class="edge">
<title>src.flask.app&#45;&gt;src.flask.templating</title>
<path fill="none" stroke="#ff6b6b" stroke-width="2" d="M1142.8,-352.33C1173.5,-359.95 1188.7,-364.25 1200.71,-370.13"/>
<polygon fill="#ff6b6b" stroke="#ff6b6b" stroke-width="2" points="1208.2,-374.35 1197.28,-373.36 1205.72,-373.53 1199.25,-369.88 1199.49,-369.44 1199.74,-369.01 1206.22,-372.66 1201.7,-365.52 1208.2,-374.35"/>
</g>
<!-- src.flask.app&#45;&gt;src.flask.sessions -->
<g id="edge19" class="edge">
<title>src.flask.app&#45;&gt;src.flask.sessions</title>
<path fill="none" stroke="#ff6b6b" stroke-width="2" d="M527.79,-182.64C644.96,-209.88 975.48,-299.54 1082.86,-333.32"/>
<polygon fill="#ff6b6b" stroke="#ff6b6b" stroke-width="2" points="1091.08,-335.94 1080.18,-337.19 1088.48,-335.64 1081.4,-333.38 1081.55,-332.9 1081.7,-332.42 1088.79,-334.69 1082.92,-328.61 1091.08,-335.94"/>
</g>
<!-- src.flask.cli -->
<g id="node12" class="node">
<title>src.flask.cli</title>
<g id="a_node12"><a xlink:title="src.flask.cli&#10;Incoming: 6&#10;Outgoing: 6&#10;Centrality: 0.146">
<ellipse fill="#ffa500" stroke="#ffa500" cx="1027.01" cy="-530" rx="27" ry="18"/>
<text xml:space="preserve" text-anchor="middle" x="1027.01" y="-524.58" font-family="Arial" font-size="14.00">cli</text>
</a>
</g>
</g>
<!-- src.flask.app&#45;&gt;src.flask.cli -->
<g id="edge14" class="edge">
<title>src.flask.app&#45;&gt;src.flask.cli</title>
<path fill="none" stroke="#ff6b6b" stroke-width="2" d="M1031.41,-511.77C1043.95,-478.73 1077.68,-409.08 1099.03,-371.41"/>
<polygon fill="#ff6b6b" stroke="#ff6b6b" stroke-width="2" points="1103.21,-364.23 1102.07,-375.14 1102.35,-366.7 1098.61,-373.13 1098.18,-372.88 1097.74,-372.63 1101.49,-366.2 1094.29,-370.61 1103.21,-364.23"/>
</g>
<!-- src.flask.debughelpers -->
<g id="node14" class="node">
<title>src.flask.debughelpers</title>
<g id="a_node14"><a xlink:title="src.flask.debughelpers&#10;Incoming: 4&#10;Outgoing: 7&#10;Centrality: 0.134">
<ellipse fill="#ffd700" stroke="#ffd700" cx="763.84" cy="-652" rx="65.04" ry="18"/>
<text xml:space="preserve" text-anchor="middle" x="763.84" y="-646.58" font-family="Arial" font-size="14.00">debughelpers</text>
</a>
</g>
</g>
<!-- src.flask.app&#45;&gt;src.flask.debughelpers -->
<g id="edge23" class="edge">
<title>src.flask.app&#45;&gt;src.flask.debughelpers</title>
<path fill="none" stroke="#ff6b6b" stroke-width="2" d="M793.87,-635.64C1018.92,-512.89 1035.61,-500.09 1102.91,-372.83"/>
<polygon fill="#ff6b6b" stroke="#ff6b6b" stroke-width="2" points="1106.92,-365.22 1106.24,-376.16 1106.17,-367.72 1102.7,-374.3 1102.26,-374.06 1101.82,-373.83 1105.29,-367.25 1098.28,-371.96 1106.92,-365.22"/>
</g>
<!-- src.flask.helpers&#45;&gt;src.flask.globals -->
<g id="edge6" class="edge">
<title>src.flask.helpers&#45;&gt;src.flask.globals</title>
<path fill="none" stroke="#ff6b6b" stroke-width="2" d="M263.75,-776.63C324.09,-698.57 328.97,-682.48 360.56,-491.45"/>
<polygon fill="#ff6b6b" stroke="#ff6b6b" stroke-width="2" points="361.99,-482.83 364.8,-493.43 362.06,-485.44 360.85,-492.78 360.36,-492.7 359.86,-492.62 361.08,-485.28 355.92,-491.96 361.99,-482.83"/>
</g>
<!-- src.flask.helpers&#45;&gt;src.flask.typing -->
<g id="edge5" class="edge">
<title>src.flask.helpers&#45;&gt;src.flask.typing</title>
<path fill="none" stroke="#666666" d="M290.65,-793.32C987.27,-781.56 1011.53,-774.26 1415.17,-397.54"/>
<polygon fill="#666666" stroke="#666666" points="1422.37,-390.82 1418.13,-400.93 1419.61,-393.4 1415.06,-397.64 1415.06,-397.64 1415.06,-397.64 1419.61,-393.4 1411.99,-394.35 1422.37,-390.82"/>
</g>
<!-- src.flask.helpers&#45;&gt;src.flask.wrappers -->
<g id="edge7" class="edge">
<title>src.flask.helpers&#45;&gt;src.flask.wrappers</title>
<path fill="none" stroke="#ff6b6b" stroke-width="2" d="M288.38,-787.99C356.71,-772.56 499.56,-733.54 571.64,-710.73"/>
<polygon fill="#ff6b6b" stroke="#ff6b6b" stroke-width="2" points="579.85,-708.1 571.7,-715.44 577.56,-709.36 570.48,-711.63 570.33,-711.15 570.17,-710.68 577.25,-708.4 568.95,-706.87 579.85,-708.1"/>
</g>
<!-- src.flask.wrappers&#45;&gt;src.flask.globals -->
<g id="edge30" class="edge">
<title>src.flask.wrappers&#45;&gt;src.flask.globals</title>
<path fill="none" stroke="#ff6b6b" stroke-width="2" d="M387.25,-477.07C434.88,-516.13 547.23,-620.3 594.16,-668.73"/>
<polygon fill="#ff6b6b" stroke="#ff6b6b" stroke-width="2" points="599.94,-674.79 589.78,-670.66 597.81,-673.28 592.68,-667.9 593.04,-667.56 593.4,-667.21 598.53,-672.59 596.29,-664.45 599.94,-674.79"/>
</g>
<!-- src.flask.wrappers&#45;&gt;src.flask.typing -->
<g id="edge29" class="edge">
<title>src.flask.wrappers&#45;&gt;src.flask.typing</title>
<path fill="none" stroke="#666666" d="M658.34,-685.85C1176.13,-587.83 1205.63,-578.5 1413.95,-396.8"/>
<polygon fill="#666666" stroke="#666666" points="1421.48,-390.23 1416.9,-400.19 1418.63,-392.71 1413.94,-396.8 1413.94,-396.8 1413.94,-396.8 1418.63,-392.71 1410.98,-393.41 1421.48,-390.23"/>
</g>
<!-- src.flask.wrappers&#45;&gt;src.flask.helpers -->
<g id="edge31" class="edge">
<title>src.flask.wrappers&#45;&gt;src.flask.helpers</title>
<path fill="none" stroke="#666666" d="M280.37,-781.62C341.94,-761.28 482.91,-722.33 560.89,-703.78"/>
<polygon fill="#666666" stroke="#666666" points="570.27,-701.58 561.56,-708.25 566.59,-702.45 560.53,-703.87 560.53,-703.87 560.53,-703.87 566.59,-702.45 559.51,-699.48 570.27,-701.58"/>
</g>
<!-- src.flask.wrappers&#45;&gt;src.flask.debughelpers -->
<g id="edge32" class="edge">
<title>src.flask.wrappers&#45;&gt;src.flask.debughelpers</title>
<path fill="none" stroke="#ff6b6b" stroke-width="2" d="M660.3,-687.71C678.97,-683.15 700.56,-677.09 719.18,-671.18"/>
<polygon fill="#ff6b6b" stroke="#ff6b6b" stroke-width="2" points="727.44,-668.48 719.33,-675.86 725.16,-669.75 718.09,-672.06 717.93,-671.58 717.78,-671.11 724.85,-668.8 716.54,-667.31 727.44,-668.48"/>
</g>
<!-- src.flask.testing&#45;&gt;src.flask.sansio.app -->
<g id="edge37" class="edge">
<title>src.flask.testing&#45;&gt;src.flask.sansio.app</title>
<path fill="none" stroke="#ff6b6b" stroke-width="2" d="M174.04,-56C317.82,-51.9 996.78,-59.17 1184.42,-66.47"/>
<polygon fill="#ff6b6b" stroke="#ff6b6b" stroke-width="2" points="1193.12,-66.83 1182.94,-70.91 1190.53,-67.22 1183.1,-66.92 1183.12,-66.42 1183.15,-65.92 1190.58,-66.23 1183.31,-61.92 1193.12,-66.83"/>
</g>
<!-- src.flask.testing&#45;&gt;src.flask.typing -->
<g id="edge33" class="edge">
<title>src.flask.testing&#45;&gt;src.flask.typing</title>
<path fill="none" stroke="#666666" d="M1253.83,-85.18C1395.88,-186.74 1408.85,-200.99 1437.51,-331"/>
<polygon fill="#666666" stroke="#666666" points="1439.62,-340.63 1433.09,-331.82 1438.81,-336.93 1437.48,-330.86 1437.48,-330.86 1437.48,-330.86 1438.81,-336.93 1441.88,-329.9 1439.62,-340.63"/>
</g>
<!-- src.flask.testing&#45;&gt;src.flask.app -->
<g id="edge36" class="edge">
<title>src.flask.testing&#45;&gt;src.flask.app</title>
<path fill="none" stroke="#ff6b6b" stroke-width="2" d="M1120.92,-327.71C1136.33,-280.36 1189.03,-153.74 1216.33,-97.52"/>
<polygon fill="#ff6b6b" stroke="#ff6b6b" stroke-width="2" points="1220.19,-89.75 1219.77,-100.71 1219.5,-92.27 1216.19,-98.93 1215.74,-98.71 1215.29,-98.48 1218.6,-91.82 1211.71,-96.7 1220.19,-89.75"/>
</g>
<!-- src.flask.testing&#45;&gt;src.flask.sessions -->
<g id="edge35" class="edge">
<title>src.flask.testing&#45;&gt;src.flask.sessions</title>
<path fill="none" stroke="#ff6b6b" stroke-width="2" d="M531.32,-171.64C976.02,-138.55 1012.86,-134.57 1189.77,-82.65"/>
<polygon fill="#ff6b6b" stroke="#ff6b6b" stroke-width="2" points="1198.17,-80.17 1189.85,-87.31 1195.85,-81.38 1188.72,-83.48 1188.58,-83 1188.44,-82.52 1195.57,-80.42 1187.31,-78.68 1198.17,-80.17"/>
</g>
<!-- src.flask.testing&#45;&gt;src.flask.cli -->
<g id="edge34" class="edge">
<title>src.flask.testing&#45;&gt;src.flask.cli</title>
<path fill="none" stroke="#ff6b6b" stroke-width="2" d="M1041.82,-514.79C1220.06,-331.71 1227.44,-318.5 1231.99,-99.11"/>
<polygon fill="#ff6b6b" stroke="#ff6b6b" stroke-width="2" points="1232.16,-90.6 1236.46,-100.69 1232.61,-93.17 1232.46,-100.61 1231.96,-100.6 1231.46,-100.59 1231.61,-93.15 1227.46,-100.51 1232.16,-90.6"/>
</g>
<!-- src.flask.ctx&#45;&gt;src.flask.sansio.app -->
<g id="edge42" class="edge">
<title>src.flask.ctx&#45;&gt;src.flask.sansio.app</title>
<path fill="none" stroke="#ff6b6b" stroke-width="2" d="M174.2,-60.56C331.81,-82.32 1131.21,-223.31 1311.83,-261.02"/>
<polygon fill="#ff6b6b" stroke="#ff6b6b" stroke-width="2" points="1320.2,-262.8 1309.49,-265.13 1317.59,-262.76 1310.32,-261.21 1310.42,-260.72 1310.52,-260.23 1317.8,-261.78 1311.35,-256.32 1320.2,-262.8"/>
</g>
<!-- src.flask.ctx&#45;&gt;src.flask.globals -->
<g id="edge39" class="edge">
<title>src.flask.ctx&#45;&gt;src.flask.globals</title>
<path fill="none" stroke="#ff6b6b" stroke-width="2" d="M399.3,-452.64C549.18,-417.88 1152.22,-300.02 1310.13,-274.58"/>
<polygon fill="#ff6b6b" stroke="#ff6b6b" stroke-width="2" points="1318.73,-273.22 1309.55,-279.22 1316.27,-274.11 1308.93,-275.27 1308.85,-274.78 1308.77,-274.28 1316.12,-273.13 1308.15,-270.33 1318.73,-273.22"/>
</g>
<!-- src.flask.ctx&#45;&gt;src.flask.typing -->
<g id="edge38" class="edge">
<title>src.flask.ctx&#45;&gt;src.flask.typing</title>
<path fill="none" stroke="#666666" d="M1368.74,-282.22C1406.23,-304.62 1419.42,-314.16 1429.85,-332.72"/>
<polygon fill="#666666" stroke="#666666" points="1434.3,-341.56 1425.79,-334.65 1432.6,-338.18 1429.81,-332.62 1429.81,-332.62 1429.81,-332.62 1432.6,-338.18 1433.83,-330.6 1434.3,-341.56"/>
</g>
<!-- src.flask.ctx&#45;&gt;src.flask.app -->
<g id="edge41" class="edge">
<title>src.flask.ctx&#45;&gt;src.flask.app</title>
<path fill="none" stroke="#ff6b6b" stroke-width="2" d="M1138.43,-334.51C1177.77,-318.34 1261.93,-290.38 1310.83,-276.96"/>
<polygon fill="#ff6b6b" stroke="#ff6b6b" stroke-width="2" points="1319.23,-274.72 1310.72,-281.64 1316.88,-275.87 1309.69,-277.78 1309.56,-277.3 1309.43,-276.81 1316.62,-274.9 1308.41,-272.95 1319.23,-274.72"/>
</g>
<!-- src.flask.ctx&#45;&gt;src.flask.helpers -->
<g id="edge40" class="edge">
<title>src.flask.ctx&#45;&gt;src.flask.helpers</title>
<path fill="none" stroke="#666666" d="M284.68,-784.26C1019.48,-576.35 1043.18,-566.7 1324.59,-292.92"/>
<polygon fill="#666666" stroke="#666666" points="1331.69,-286.01 1327.67,-296.21 1328.98,-288.65 1324.53,-292.98 1324.53,-292.98 1324.53,-292.98 1328.98,-288.65 1321.39,-289.76 1331.69,-286.01"/>
</g>
<!-- src.flask.ctx&#45;&gt;src.flask.wrappers -->
<g id="edge44" class="edge">
<title>src.flask.ctx&#45;&gt;src.flask.wrappers</title>
<path fill="none" stroke="#ff6b6b" stroke-width="2" d="M648.95,-681C1131.57,-494.9 1154.09,-483.47 1326.51,-293.83"/>
<polygon fill="#ff6b6b" stroke="#ff6b6b" stroke-width="2" points="1332.39,-287.35 1329,-297.78 1331.04,-289.59 1326.04,-295.09 1325.67,-294.75 1325.3,-294.42 1330.3,-288.91 1322.34,-291.73 1332.39,-287.35"/>
</g>
<!-- src.flask.ctx&#45;&gt;src.flask.sessions -->
<g id="edge43" class="edge">
<title>src.flask.ctx&#45;&gt;src.flask.sessions</title>
<path fill="none" stroke="#ff6b6b" stroke-width="2" d="M529.52,-181.06C1057.59,-254.66 1091.01,-258.78 1309.87,-268.35"/>
<polygon fill="#ff6b6b" stroke="#ff6b6b" stroke-width="2" points="1318.34,-268.71 1308.16,-272.77 1315.76,-269.1 1308.33,-268.78 1308.35,-268.28 1308.38,-267.78 1315.81,-268.1 1308.55,-263.78 1318.34,-268.71"/>
</g>
<!-- src.flask.templating&#45;&gt;src.flask.sansio.app -->
<g id="edge49" class="edge">
<title>src.flask.templating&#45;&gt;src.flask.sansio.app</title>
<path fill="none" stroke="#ff6b6b" stroke-width="2" d="M172.85,-63.58C314.67,-101.17 1002.07,-312.44 1186.8,-374.83"/>
<polygon fill="#ff6b6b" stroke="#ff6b6b" stroke-width="2" points="1194.92,-377.59 1184.01,-378.63 1192.34,-377.24 1185.29,-374.84 1185.46,-374.37 1185.62,-373.9 1192.66,-376.29 1186.9,-370.11 1194.92,-377.59"/>
</g>
<!-- src.flask.templating&#45;&gt;src.flask.globals -->
<g id="edge47" class="edge">
<title>src.flask.templating&#45;&gt;src.flask.globals</title>
<path fill="none" stroke="#ff6b6b" stroke-width="2" d="M403.99,-465.34C920.21,-510.03 954.4,-510.14 1188.98,-410.6"/>
<polygon fill="#ff6b6b" stroke="#ff6b6b" stroke-width="2" points="1196.97,-407.2 1189.53,-415.26 1194.81,-408.67 1187.97,-411.58 1187.77,-411.12 1187.57,-410.66 1194.42,-407.75 1186.01,-406.98 1196.97,-407.2"/>
</g>
<!-- src.flask.templating&#45;&gt;src.flask.typing -->
<g id="edge45" class="edge">
<title>src.flask.templating&#45;&gt;src.flask.typing</title>
<path fill="none" stroke="#666666" d="M1283.33,-386.98C1349.35,-380.45 1374.77,-377.83 1400.58,-374.72"/>
<polygon fill="#666666" stroke="#666666" points="1410.17,-373.55 1400.79,-379.23 1406.42,-374.01 1400.25,-374.76 1400.25,-374.76 1400.25,-374.76 1406.42,-374.01 1399.7,-370.3 1410.17,-373.55"/>
</g>
<!-- src.flask.templating&#45;&gt;src.flask.helpers -->
<g id="edge48" class="edge">
<title>src.flask.templating&#45;&gt;src.flask.helpers</title>
<path fill="none" stroke="#666666" d="M289.23,-789.27C899.57,-715.07 921.93,-707.14 1208.06,-416.88"/>
<polygon fill="#666666" stroke="#666666" points="1214.88,-409.96 1211.07,-420.24 1212.23,-412.66 1207.86,-417.09 1207.86,-417.09 1207.86,-417.09 1212.23,-412.66 1204.66,-413.93 1214.88,-409.96"/>
</g>
<!-- src.flask.templating&#45;&gt;src.flask.ctx -->
<g id="edge46" class="edge">
<title>src.flask.templating&#45;&gt;src.flask.ctx</title>
<path fill="none" stroke="#ff6b6b" stroke-width="2" d="M1259.16,-376.3C1312.09,-344.7 1323.03,-334.6 1337.77,-297.67"/>
<polygon fill="#ff6b6b" stroke="#ff6b6b" stroke-width="2" points="1340.75,-289.94 1341.35,-300.89 1340.29,-292.52 1337.62,-299.45 1337.15,-299.27 1336.68,-299.09 1339.36,-292.16 1332.95,-297.65 1340.75,-289.94"/>
</g>
<!-- src.flask.templating&#45;&gt;src.flask.debughelpers -->
<g id="edge50" class="edge">
<title>src.flask.templating&#45;&gt;src.flask.debughelpers</title>
<path fill="none" stroke="#ff6b6b" stroke-width="2" d="M813.67,-640.04C1077.94,-576.36 1098.29,-564.78 1212.47,-417.95"/>
<polygon fill="#ff6b6b" stroke="#ff6b6b" stroke-width="2" points="1217.55,-411.4 1214.98,-422.06 1216.38,-413.73 1211.82,-419.6 1211.42,-419.3 1211.03,-418.99 1215.59,-413.11 1207.87,-416.54 1217.55,-411.4"/>
</g>
<!-- src.flask.sessions&#45;&gt;src.flask.sansio.app -->
<g id="edge3" class="edge">
<title>src.flask.sessions&#45;&gt;src.flask.sansio.app</title>
<path fill="none" stroke="#ff6b6b" stroke-width="2" d="M166.83,-70.45C239.78,-116.35 259.26,-123.17 435.41,-163.45"/>
<polygon fill="#ff6b6b" stroke="#ff6b6b" stroke-width="2" points="443.75,-165.36 433,-167.52 441.14,-165.27 433.89,-163.62 434,-163.13 434.11,-162.64 441.36,-164.3 435,-158.74 443.75,-165.36"/>
</g>
<!-- src.flask.sessions&#45;&gt;src.flask.typing -->
<g id="edge1" class="edge">
<title>src.flask.sessions&#45;&gt;src.flask.typing</title>
<path fill="none" stroke="#666666" d="M531.97,-173.45C1098.84,-154.42 1128.27,-158.45 1409.9,-345.19"/>
<polygon fill="#666666" stroke="#666666" points="1418.15,-350.67 1407.33,-348.89 1415,-348.58 1409.82,-345.14 1409.82,-345.14 1409.82,-345.14 1415,-348.58 1412.31,-341.39 1418.15,-350.67"/>
</g>
<!-- src.flask.sessions&#45;&gt;src.flask.app -->
<g id="edge2" class="edge">
<title>src.flask.sessions&#45;&gt;src.flask.app</title>
<path fill="none" stroke="#ff6b6b" stroke-width="2" d="M519.6,-187.48C627.66,-221.53 966.42,-313.38 1079.7,-339.38"/>
<polygon fill="#ff6b6b" stroke="#ff6b6b" stroke-width="2" points="1088.18,-341.28 1077.44,-343.48 1085.57,-341.21 1078.31,-339.58 1078.42,-339.09 1078.53,-338.6 1085.79,-340.23 1079.41,-334.7 1088.18,-341.28"/>
</g>
<!-- src.flask.sessions&#45;&gt;src.flask.wrappers -->
<g id="edge4" class="edge">
<title>src.flask.sessions&#45;&gt;src.flask.wrappers</title>
<path fill="none" stroke="#ff6b6b" stroke-width="2" d="M498.5,-192.77C650.48,-410.43 655.29,-424.83 619.61,-664.71"/>
<polygon fill="#ff6b6b" stroke="#ff6b6b" stroke-width="2" points="618.35,-673.15 615.38,-662.59 618.24,-670.54 619.33,-663.18 619.83,-663.26 620.32,-663.33 619.23,-670.69 624.28,-663.92 618.35,-673.15"/>
</g>
<!-- src.flask.cli&#45;&gt;src.flask.sansio.app -->
<g id="edge69" class="edge">
<title>src.flask.cli&#45;&gt;src.flask.sansio.app</title>
<path fill="none" stroke="#ff6b6b" stroke-width="2" d="M160.36,-73.83C393.88,-353.83 409.1,-362.28 990.8,-520.18"/>
<polygon fill="#ff6b6b" stroke="#ff6b6b" stroke-width="2" points="999.23,-522.46 988.4,-524.19 996.62,-522.27 989.44,-520.33 989.58,-519.84 989.71,-519.36 996.88,-521.31 990.75,-515.5 999.23,-522.46"/>
</g>
<!-- src.flask.cli&#45;&gt;src.flask.globals -->
<g id="edge66" class="edge">
<title>src.flask.cli&#45;&gt;src.flask.globals</title>
<path fill="none" stroke="#ff6b6b" stroke-width="2" d="M395.99,-473.67C566.8,-538.6 593.19,-540.08 988.63,-530.9"/>
<polygon fill="#ff6b6b" stroke="#ff6b6b" stroke-width="2" points="997.4,-530.69 987.51,-535.42 994.85,-531.25 987.42,-531.42 987.41,-530.93 987.39,-530.43 994.83,-530.25 987.3,-526.43 997.4,-530.69"/>
</g>
<!-- src.flask.cli&#45;&gt;src.flask.typing -->
<g id="edge65" class="edge">
<title>src.flask.cli&#45;&gt;src.flask.typing</title>
<path fill="none" stroke="#666666" d="M1052.53,-523.49C1295.83,-461.4 1325.44,-452.62 1410.78,-393.57"/>
<polygon fill="#666666" stroke="#666666" points="1418.78,-388 1413.14,-397.41 1415.68,-390.16 1410.57,-393.71 1410.57,-393.71 1410.57,-393.71 1415.68,-390.16 1408,-390.02 1418.78,-388"/>
</g>
<!-- src.flask.cli&#45;&gt;src.flask.app -->
<g id="edge68" class="edge">
<title>src.flask.cli&#45;&gt;src.flask.app</title>
<path fill="none" stroke="#ff6b6b" stroke-width="2" d="M1039.59,-513.87C1058.38,-482.6 1092.41,-413.54 1108.56,-374.42"/>
<polygon fill="#ff6b6b" stroke="#ff6b6b" stroke-width="2" points="1111.71,-366.5 1112.19,-377.46 1111.22,-369.07 1108.48,-375.98 1108.01,-375.79 1107.55,-375.61 1110.3,-368.7 1103.83,-374.13 1111.71,-366.5"/>
</g>
<!-- src.flask.cli&#45;&gt;src.flask.helpers -->
<g id="edge67" class="edge">
<title>src.flask.cli&#45;&gt;src.flask.helpers</title>
<path fill="none" stroke="#666666" d="M290.17,-796.47C572.17,-813.56 596.03,-802.94 997.98,-548.39"/>
<polygon fill="#666666" stroke="#666666" points="1006.22,-543.17 1000.18,-552.33 1003.02,-545.2 997.77,-548.52 997.77,-548.52 997.77,-548.52 1003.02,-545.2 995.36,-544.72 1006.22,-543.17"/>
</g>
<!-- src.flask.__init__ -->
<g id="node13" class="node">
<title>src.flask.__init__</title>
<g id="a_node13"><a xlink:title="src.flask.__init__&#10;Incoming: 0&#10;Outgoing: 12&#10;Centrality: 0.146">
<ellipse fill="#90ee90" stroke="#90ee90" cx="42.08" cy="-616" rx="42.08" ry="18"/>
<text xml:space="preserve" text-anchor="middle" x="42.08" y="-610.58" font-family="Arial" font-size="14.00">__init__</text>
</a>
</g>
</g>
<!-- src.flask.__init__&#45;&gt;src.flask.sansio.app -->
<g id="edge71" class="edge">
<title>src.flask.__init__&#45;&gt;src.flask.sansio.app</title>
<path fill="none" stroke="#666666" d="M38.39,-597.83C-15.82,-331.15 -14.57,-316.68 130.62,-84.43"/>
<polygon fill="#666666" stroke="#666666" points="135.87,-76.04 134.38,-86.9 133.86,-79.25 130.57,-84.52 130.57,-84.52 130.57,-84.52 133.86,-79.25 126.75,-82.13 135.87,-76.04"/>
</g>
<!-- src.flask.__init__&#45;&gt;src.flask.globals -->
<g id="edge74" class="edge">
<title>src.flask.__init__&#45;&gt;src.flask.globals</title>
<path fill="none" stroke="#666666" d="M64.78,-600.62C130.73,-556.26 151.67,-546.73 325.04,-478"/>
<polygon fill="#666666" stroke="#666666" points="334.17,-474.38 326.53,-482.25 330.66,-475.77 324.88,-478.06 324.88,-478.06 324.88,-478.06 330.66,-475.77 323.22,-473.88 334.17,-474.38"/>
</g>
<!-- src.flask.__init__&#45;&gt;src.flask.app -->
<g id="edge70" class="edge">
<title>src.flask.__init__&#45;&gt;src.flask.app</title>
<path fill="none" stroke="#666666" d="M78.36,-606.44C359.93,-532.28 392.05,-524.3 1080.63,-354.95"/>
<polygon fill="#666666" stroke="#666666" points="1090.14,-352.61 1081.51,-359.37 1086.47,-353.51 1080.43,-355 1080.43,-355 1080.43,-355 1086.47,-353.51 1079.36,-350.63 1090.14,-352.61"/>
</g>
<!-- src.flask.__init__&#45;&gt;src.flask.helpers -->
<g id="edge75" class="edge">
<title>src.flask.__init__&#45;&gt;src.flask.helpers</title>
<path fill="none" stroke="#666666" d="M50.86,-634.03C92.48,-719.11 103.28,-730.41 210.89,-777.1"/>
<polygon fill="#666666" stroke="#666666" points="219.78,-780.94 208.82,-781.1 216.31,-779.44 210.6,-776.97 210.6,-776.97 210.6,-776.97 216.31,-779.44 212.39,-772.84 219.78,-780.94"/>
</g>
<!-- src.flask.__init__&#45;&gt;src.flask.wrappers -->
<g id="edge77" class="edge">
<title>src.flask.__init__&#45;&gt;src.flask.wrappers</title>
<path fill="none" stroke="#666666" d="M69.69,-629.78C218.09,-703.48 243.7,-706.97 556.8,-696.07"/>
<polygon fill="#666666" stroke="#666666" points="566.37,-695.73 556.53,-700.58 562.59,-695.86 556.37,-696.08 556.37,-696.08 556.37,-696.08 562.59,-695.86 556.22,-691.58 566.37,-695.73"/>
</g>
<!-- src.flask.__init__&#45;&gt;src.flask.ctx -->
<g id="edge73" class="edge">
<title>src.flask.__init__&#45;&gt;src.flask.ctx</title>
<path fill="none" stroke="#666666" d="M81.67,-609.53C442.91,-550.4 476.42,-540.72 1312.67,-281.01"/>
<polygon fill="#666666" stroke="#666666" points="1322.01,-278.11 1313.79,-285.38 1318.4,-279.24 1312.46,-281.08 1312.46,-281.08 1312.46,-281.08 1318.4,-279.24 1311.12,-276.78 1322.01,-278.11"/>
</g>
<!-- src.flask.__init__&#45;&gt;src.flask.templating -->
<g id="edge76" class="edge">
<title>src.flask.__init__&#45;&gt;src.flask.templating</title>
<path fill="none" stroke="#666666" d="M84.35,-617.16C421.77,-626.16 457.37,-618.2 1181.2,-406.99"/>
<polygon fill="#666666" stroke="#666666" points="1190.74,-404.21 1182.4,-411.33 1187.11,-405.27 1181.14,-407.01 1181.14,-407.01 1181.14,-407.01 1187.11,-405.27 1179.88,-402.69 1190.74,-404.21"/>
</g>
<!-- src.flask.__init__&#45;&gt;src.flask.blueprints -->
<g id="edge72" class="edge">
<title>src.flask.__init__&#45;&gt;src.flask.blueprints</title>
<path fill="none" stroke="#666666" d="M68.01,-630.65C335.92,-781.78 360.8,-785.78 855.49,-734.17"/>
<polygon fill="#666666" stroke="#666666" points="865.3,-733.15 855.82,-738.66 861.54,-733.54 855.36,-734.19 855.36,-734.19 855.36,-734.19 861.54,-733.54 854.89,-729.71 865.3,-733.15"/>
</g>
<!-- src.flask.debughelpers&#45;&gt;src.flask.sansio.app -->
<g id="edge11" class="edge">
<title>src.flask.debughelpers&#45;&gt;src.flask.sansio.app</title>
<path fill="none" stroke="#ff6b6b" stroke-width="2" d="M155.48,-75.49C281.28,-339.89 293.74,-352.64 727.95,-629.16"/>
<polygon fill="#ff6b6b" stroke="#ff6b6b" stroke-width="2" points="735.25,-633.8 724.4,-632.23 732.82,-632.85 726.55,-628.85 726.82,-628.43 727.09,-628.01 733.36,-632 729.23,-624.64 735.25,-633.8"/>
</g>
<!-- src.flask.debughelpers&#45;&gt;src.flask.globals -->
<g id="edge10" class="edge">
<title>src.flask.debughelpers&#45;&gt;src.flask.globals</title>
<path fill="none" stroke="#ff6b6b" stroke-width="2" d="M381.02,-478.88C474.32,-579.52 492.59,-590.25 702.01,-638.01"/>
<polygon fill="#ff6b6b" stroke="#ff6b6b" stroke-width="2" points="710.4,-639.92 699.65,-642.09 707.79,-639.84 700.54,-638.19 700.65,-637.7 700.76,-637.22 708.01,-638.87 701.65,-633.32 710.4,-639.92"/>
</g>
<!-- src.flask.debughelpers&#45;&gt;src.flask.typing -->
<g id="edge8" class="edge">
<title>src.flask.debughelpers&#45;&gt;src.flask.typing</title>
<path fill="none" stroke="#666666" d="M814.01,-640.14C1224.38,-543.06 1254.68,-532.19 1413.93,-396.27"/>
<polygon fill="#666666" stroke="#666666" points="1421.18,-390.07 1416.5,-399.99 1418.3,-392.53 1413.58,-396.57 1413.58,-396.57 1413.58,-396.57 1418.3,-392.53 1410.65,-393.15 1421.18,-390.07"/>
</g>
<!-- src.flask.debughelpers&#45;&gt;src.flask.wrappers -->
<g id="edge12" class="edge">
<title>src.flask.debughelpers&#45;&gt;src.flask.wrappers</title>
<path fill="none" stroke="#ff6b6b" stroke-width="2" d="M645.1,-679.71C659.89,-674.6 678.4,-669 696.37,-664.1"/>
<polygon fill="#ff6b6b" stroke="#ff6b6b" stroke-width="2" points="704.79,-661.85 696.29,-668.78 702.44,-663 695.26,-664.91 695.13,-664.43 695,-663.95 702.19,-662.03 693.97,-660.08 704.79,-661.85"/>
</g>
<!-- src.flask.debughelpers&#45;&gt;src.flask.blueprints -->
<g id="edge9" class="edge">
<title>src.flask.debughelpers&#45;&gt;src.flask.blueprints</title>
<path fill="none" stroke="#ff6b6b" stroke-width="2" d="M805.21,-666.27C852.58,-682.82 869.7,-690.24 887.47,-704.12"/>
<polygon fill="#ff6b6b" stroke="#ff6b6b" stroke-width="2" points="893.91,-709.45 883.34,-706.54 891.62,-708.2 885.89,-703.46 886.21,-703.08 886.52,-702.69 892.25,-707.43 889.08,-699.61 893.91,-709.45"/>
</g>
<!-- src.flask.blueprints&#45;&gt;src.flask.globals -->
<g id="edge26" class="edge">
<title>src.flask.blueprints&#45;&gt;src.flask.globals</title>
<path fill="none" stroke="#ff6b6b" stroke-width="2" d="M388.97,-476.7C688.05,-663.4 722.35,-683.46 861.56,-715.98"/>
<polygon fill="#ff6b6b" stroke="#ff6b6b" stroke-width="2" points="869.83,-717.9 859.08,-720.03 867.22,-717.81 859.98,-716.13 860.09,-715.64 860.21,-715.16 867.45,-716.83 861.11,-711.26 869.83,-717.9"/>
</g>
<!-- src.flask.blueprints&#45;&gt;src.flask.typing -->
<g id="edge24" class="edge">
<title>src.flask.blueprints&#45;&gt;src.flask.typing</title>
<path fill="none" stroke="#666666" d="M949.11,-714.7C1284.36,-585.96 1307.47,-573.02 1423.24,-402.32"/>
<polygon fill="#666666" stroke="#666666" points="1428.69,-394.28 1426.81,-405.08 1426.57,-397.41 1423.08,-402.56 1423.08,-402.56 1423.08,-402.56 1426.57,-397.41 1419.35,-400.03 1428.69,-394.28"/>
</g>
<!-- src.flask.blueprints&#45;&gt;src.flask.helpers -->
<g id="edge27" class="edge">
<title>src.flask.blueprints&#45;&gt;src.flask.helpers</title>
<path fill="none" stroke="#666666" d="M287.35,-801.22C636.31,-869.03 661.54,-868.57 877.22,-748.76"/>
<polygon fill="#666666" stroke="#666666" points="885.9,-743.93 879.35,-752.73 882.6,-745.77 877.16,-748.79 877.16,-748.79 877.16,-748.79 882.6,-745.77 874.98,-744.86 885.9,-743.93"/>
</g>
<!-- src.flask.blueprints&#45;&gt;src.flask.wrappers -->
<g id="edge28" class="edge">
<title>src.flask.blueprints&#45;&gt;src.flask.wrappers</title>
<path fill="none" stroke="#ff6b6b" stroke-width="2" d="M643.94,-708.68C749.85,-762.53 771.29,-767.82 864.45,-742.29"/>
<polygon fill="#ff6b6b" stroke="#ff6b6b" stroke-width="2" points="872.89,-739.95 864.47,-746.96 870.56,-741.12 863.39,-743.11 863.26,-742.63 863.13,-742.14 870.29,-740.15 862.05,-738.29 872.89,-739.95"/>
</g>
<!-- src.flask.blueprints&#45;&gt;src.flask.cli -->
<g id="edge25" class="edge">
<title>src.flask.blueprints&#45;&gt;src.flask.cli</title>
<path fill="none" stroke="#ff6b6b" stroke-width="2" d="M935.68,-711.39C1001.57,-659.42 1008.83,-646.86 1022.54,-559.27"/>
<polygon fill="#ff6b6b" stroke="#ff6b6b" stroke-width="2" points="1023.88,-550.61 1026.8,-561.18 1023.98,-553.22 1022.85,-560.57 1022.35,-560.49 1021.86,-560.42 1022.99,-553.07 1017.91,-559.81 1023.88,-550.61"/>
</g>
</g>
</svg>
