<?xml version="1.0" encoding="UTF-8" standalone="no"?>
<!DOCTYPE svg PUBLIC "-//W3C//DTD SVG 1.1//EN"
 "http://www.w3.org/Graphics/SVG/1.1/DTD/svg11.dtd">
<!-- Generated by graphviz version 14.1.5 (20260411.2331)
 -->
<!-- Pages: 1 -->
<svg width="796pt" height="872pt"
 viewBox="0.00 0.00 796.00 872.00" xmlns="http://www.w3.org/2000/svg" xmlns:xlink="http://www.w3.org/1999/xlink">
<g id="graph0" class="graph" transform="scale(1 1) rotate(0) translate(4 868)">
<polygon fill="white" stroke="none" points="-4,4 -4,-868 791.96,-868 791.96,4 -4,4"/>
<!-- tastypie.contrib.contenttypes.fields -->
<g id="node1" class="node">
<title>tastypie.contrib.contenttypes.fields</title>
<g id="a_node1"><a xlink:title="tastypie.contrib.contenttypes.fields&#10;Incoming: 22&#10;Outgoing: 51&#10;Centrality: 0.378">
<ellipse fill="#ff6b6b" stroke="#ff6b6b" cx="126.82" cy="-457" rx="31.6" ry="18"/>
<text xml:space="preserve" text-anchor="middle" x="126.82" y="-451.57" font-family="Arial" font-size="14.00">fields</text>
</a>
</g>
</g>
<!-- tastypie.contrib.contenttypes.fields&#45;&gt;tastypie.contrib.contenttypes.fields -->
<g id="edge9" class="edge">
<title>tastypie.contrib.contenttypes.fields&#45;&gt;tastypie.contrib.contenttypes.fields</title>
<path fill="none" stroke="#666666" d="M126.82,-457C126.82,-457 126.82,-457 126.82,-457"/>
<polygon fill="#666666" stroke="#666666" points="127.68,-457.86 142.18,-463.36 131.82,-462 137.68,-467.86 137.68,-467.86 137.68,-467.86 131.82,-462 133.18,-472.36 127.68,-457.86"/>
</g>
<!-- tastypie.resources -->
<g id="node2" class="node">
<title>tastypie.resources</title>
<g id="a_node2"><a xlink:title="tastypie.resources&#10;Incoming: 30&#10;Outgoing: 37&#10;Centrality: 0.347">
<ellipse fill="#ff6b6b" stroke="#ff6b6b" cx="380.62" cy="-512" rx="50.07" ry="18"/>
<text xml:space="preserve" text-anchor="middle" x="380.62" y="-506.57" font-family="Arial" font-size="14.00">resources</text>
</a>
</g>
</g>
<!-- tastypie.contrib.contenttypes.fields&#45;&gt;tastypie.resources -->
<g id="edge12" class="edge">
<title>tastypie.contrib.contenttypes.fields&#45;&gt;tastypie.resources</title>
<path fill="none" stroke="#666666" d="M155.96,-467.98C195.9,-479.11 268.58,-495.29 320.46,-504.9"/>
<polygon fill="#666666" stroke="#666666" points="329.99,-506.63 319.35,-509.27 326.27,-505.96 320.15,-504.85 320.15,-504.85 320.15,-504.85 326.27,-505.96 320.96,-500.42 329.99,-506.63"/>
</g>
<!-- tastypie.contrib.gis.resources -->
<g id="node3" class="node">
<title>tastypie.contrib.gis.resources</title>
<g id="a_node3"><a xlink:title="tastypie.contrib.gis.resources&#10;Incoming: 22&#10;Outgoing: 37&#10;Centrality: 0.306">
<ellipse fill="#ff6b6b" stroke="#ff6b6b" cx="516.75" cy="-282" rx="50.07" ry="18"/>
<text xml:space="preserve" text-anchor="middle" x="516.75" y="-276.57" font-family="Arial" font-size="14.00">resources</text>
</a>
</g>
</g>
<!-- tastypie.contrib.contenttypes.fields&#45;&gt;tastypie.contrib.gis.resources -->
<g id="edge11" class="edge">
<title>tastypie.contrib.contenttypes.fields&#45;&gt;tastypie.contrib.gis.resources</title>
<path fill="none" stroke="#666666" d="M156.7,-447.67C224.87,-421.17 392.06,-346.44 472.34,-306.92"/>
<polygon fill="#666666" stroke="#666666" points="481.06,-302.59 474.1,-311.07 477.67,-304.28 472.1,-307.04 472.1,-307.04 472.1,-307.04 477.67,-304.28 470.1,-303.01 481.06,-302.59"/>
</g>
<!-- tests.authorization.api.resources -->
<g id="node4" class="node">
<title>tests.authorization.api.resources</title>
<g id="a_node4"><a xlink:title="tests.authorization.api.resources&#10;Incoming: 5&#10;Outgoing: 50&#10;Centrality: 0.285">
<ellipse fill="#ffd700" stroke="#ffd700" cx="244.49" cy="-90" rx="50.07" ry="18"/>
<text xml:space="preserve" text-anchor="middle" x="244.49" y="-84.58" font-family="Arial" font-size="14.00">resources</text>
</a>
</g>
</g>
<!-- tastypie.contrib.contenttypes.fields&#45;&gt;tests.authorization.api.resources -->
<g id="edge13" class="edge">
<title>tastypie.contrib.contenttypes.fields&#45;&gt;tests.authorization.api.resources</title>
<path fill="none" stroke="#666666" d="M138.92,-431.45C164.33,-365.33 220.89,-189 239.14,-119.11"/>
<polygon fill="#666666" stroke="#666666" points="241.52,-109.65 243.44,-120.44 240.6,-113.31 239.08,-119.34 239.08,-119.34 239.08,-119.34 240.6,-113.31 234.71,-118.25 241.52,-109.65"/>
</g>
<!-- tests.profilingtests.resources -->
<g id="node5" class="node">
<title>tests.profilingtests.resources</title>
<g id="a_node5"><a xlink:title="tests.profilingtests.resources&#10;Incoming: 3&#10;Outgoing: 50&#10;Centrality: 0.275">
<ellipse fill="#ffd700" stroke="#ffd700" cx="244.49" cy="-18" rx="50.07" ry="18"/>
<text xml:space="preserve" text-anchor="middle" x="244.49" y="-12.57" font-family="Arial" font-size="14.00">resources</text>
</a>
</g>
</g>
<!-- tastypie.contrib.contenttypes.fields&#45;&gt;tests.profilingtests.resources -->
<g id="edge14" class="edge">
<title>tastypie.contrib.contenttypes.fields&#45;&gt;tests.profilingtests.resources</title>
<path fill="none" stroke="#666666" d="M137.33,-431.09C162.49,-354.16 223.28,-127.44 240.39,-46.83"/>
<polygon fill="#666666" stroke="#666666" points="242.35,-37.23 244.76,-47.93 241.59,-40.94 240.35,-47.03 240.35,-47.03 240.35,-47.03 241.59,-40.94 235.94,-46.13 242.35,-37.23"/>
</g>
<!-- tests.related_resource.api.resources -->
<g id="node6" class="node">
<title>tests.related_resource.api.resources</title>
<g id="a_node6"><a xlink:title="tests.related_resource.api.resources&#10;Incoming: 7&#10;Outgoing: 39&#10;Centrality: 0.238">
<ellipse fill="#ffa500" stroke="#ffa500" cx="244.49" cy="-846" rx="50.07" ry="18"/>
<text xml:space="preserve" text-anchor="middle" x="244.49" y="-840.58" font-family="Arial" font-size="14.00">resources</text>
</a>
</g>
</g>
<!-- tastypie.contrib.contenttypes.fields&#45;&gt;tests.related_resource.api.resources -->
<g id="edge16" class="edge">
<title>tastypie.contrib.contenttypes.fields&#45;&gt;tests.related_resource.api.resources</title>
<path fill="none" stroke="#666666" d="M131.28,-484.17C148.43,-555.2 206.05,-745.86 232.05,-817.92"/>
<polygon fill="#666666" stroke="#666666" points="235.38,-826.9 227.69,-819.08 234.06,-823.35 231.91,-817.52 231.91,-817.52 231.91,-817.52 234.06,-823.35 236.13,-815.96 235.38,-826.9"/>
</g>
<!-- tests.core.tests.resources -->
<g id="node7" class="node">
<title>tests.core.tests.resources</title>
<g id="a_node7"><a xlink:title="tests.core.tests.resources&#10;Incoming: 5&#10;Outgoing: 40&#10;Centrality: 0.233">
<ellipse fill="#ffd700" stroke="#ffd700" cx="244.49" cy="-349" rx="50.07" ry="18"/>
<text xml:space="preserve" text-anchor="middle" x="244.49" y="-343.57" font-family="Arial" font-size="14.00">resources</text>
</a>
</g>
</g>
<!-- tastypie.contrib.contenttypes.fields&#45;&gt;tests.core.tests.resources -->
<g id="edge18" class="edge">
<title>tastypie.contrib.contenttypes.fields&#45;&gt;tests.core.tests.resources</title>
<path fill="none" stroke="#666666" d="M152.61,-440.67C174.26,-423.16 204.65,-395.33 224.51,-374.86"/>
<polygon fill="#666666" stroke="#666666" points="231.23,-367.75 227.63,-378.11 228.63,-370.5 224.36,-375.02 224.36,-375.02 224.36,-375.02 228.63,-370.5 221.09,-371.93 231.23,-367.75"/>
</g>
<!-- tests.basic.api.resources -->
<g id="node8" class="node">
<title>tests.basic.api.resources</title>
<g id="a_node8"><a xlink:title="tests.basic.api.resources&#10;Incoming: 7&#10;Outgoing: 38&#10;Centrality: 0.233">
<ellipse fill="#ffa500" stroke="#ffa500" cx="244.49" cy="-144" rx="50.07" ry="18"/>
<text xml:space="preserve" text-anchor="middle" x="244.49" y="-138.57" font-family="Arial" font-size="14.00">resources</text>
</a>
</g>
</g>
<!-- tastypie.contrib.contenttypes.fields&#45;&gt;tests.basic.api.resources -->
<g id="edge21" class="edge">
<title>tastypie.contrib.contenttypes.fields&#45;&gt;tests.basic.api.resources</title>
<path fill="none" stroke="#666666" d="M140.46,-431.98C165.99,-374.57 218.95,-233.76 237.94,-172.84"/>
<polygon fill="#666666" stroke="#666666" points="240.83,-163.27 242.25,-174.14 239.74,-166.89 237.94,-172.84 237.94,-172.84 237.94,-172.84 239.74,-166.89 233.63,-171.55 240.83,-163.27"/>
</g>
<!-- tests.validation.api.resources -->
<g id="node9" class="node">
<title>tests.validation.api.resources</title>
<g id="a_node9"><a xlink:title="tests.validation.api.resources&#10;Incoming: 6&#10;Outgoing: 38&#10;Centrality: 0.228">
<ellipse fill="#ffa500" stroke="#ffa500" cx="244.49" cy="-457" rx="50.07" ry="18"/>
<text xml:space="preserve" text-anchor="middle" x="244.49" y="-451.57" font-family="Arial" font-size="14.00">resources</text>
</a>
</g>
</g>
<!-- tastypie.contrib.contenttypes.fields&#45;&gt;tests.validation.api.resources -->
<g id="edge20" class="edge">
<title>tastypie.contrib.contenttypes.fields&#45;&gt;tests.validation.api.resources</title>
<path fill="none" stroke="#666666" d="M158.04,-463.04C166.85,-463.53 176.72,-463.76 186.56,-463.75"/>
<polygon fill="#666666" stroke="#666666" points="196.37,-463.64 186.43,-468.25 192.59,-463.68 186.38,-463.75 186.38,-463.75 186.38,-463.75 192.59,-463.68 186.32,-459.25 196.37,-463.64"/>
</g>
<!-- tests.slashless.api.resources -->
<g id="node10" class="node">
<title>tests.slashless.api.resources</title>
<g id="a_node10"><a xlink:title="tests.slashless.api.resources&#10;Incoming: 6&#10;Outgoing: 38&#10;Centrality: 0.228">
<ellipse fill="#ffa500" stroke="#ffa500" cx="244.49" cy="-403" rx="50.07" ry="18"/>
<text xml:space="preserve" text-anchor="middle" x="244.49" y="-397.57" font-family="Arial" font-size="14.00">resources</text>
</a>
</g>
</g>
<!-- tastypie.contrib.contenttypes.fields&#45;&gt;tests.slashless.api.resources -->
<g id="edge17" class="edge">
<title>tastypie.contrib.contenttypes.fields&#45;&gt;tests.slashless.api.resources</title>
<path fill="none" stroke="#666666" d="M157.45,-449.39C174.37,-442.79 195.35,-433.29 212.49,-424.52"/>
<polygon fill="#666666" stroke="#666666" points="220.99,-420.04 214.24,-428.68 217.65,-421.8 212.14,-424.7 212.14,-424.7 212.14,-424.7 217.65,-421.8 210.05,-420.72 220.99,-420.04"/>
</g>
<!-- tests.gis.api.resources -->
<g id="node11" class="node">
<title>tests.gis.api.resources</title>
<g id="a_node11"><a xlink:title="tests.gis.api.resources&#10;Incoming: 6&#10;Outgoing: 38&#10;Centrality: 0.228">
<ellipse fill="#ffa500" stroke="#ffa500" cx="244.49" cy="-659" rx="50.07" ry="18"/>
<text xml:space="preserve" text-anchor="middle" x="244.49" y="-653.58" font-family="Arial" font-size="14.00">resources</text>
</a>
</g>
</g>
<!-- tastypie.contrib.contenttypes.fields&#45;&gt;tests.gis.api.resources -->
<g id="edge19" class="edge">
<title>tastypie.contrib.contenttypes.fields&#45;&gt;tests.gis.api.resources</title>
<path fill="none" stroke="#666666" d="M136.84,-483.26C156.08,-521.86 197.63,-593.41 223.23,-632.27"/>
<polygon fill="#666666" stroke="#666666" points="228.69,-640.4 219.37,-634.61 226.58,-637.26 223.11,-632.1 223.11,-632.1 223.11,-632.1 226.58,-637.26 226.84,-629.59 228.69,-640.4"/>
</g>
<!-- tests.namespaced.api.resources -->
<g id="node12" class="node">
<title>tests.namespaced.api.resources</title>
<g id="a_node12"><a xlink:title="tests.namespaced.api.resources&#10;Incoming: 6&#10;Outgoing: 38&#10;Centrality: 0.228">
<ellipse fill="#ffa500" stroke="#ffa500" cx="244.49" cy="-605" rx="50.07" ry="18"/>
<text xml:space="preserve" text-anchor="middle" x="244.49" y="-599.58" font-family="Arial" font-size="14.00">resources</text>
</a>
</g>
</g>
<!-- tastypie.contrib.contenttypes.fields&#45;&gt;tests.namespaced.api.resources -->
<g id="edge15" class="edge">
<title>tastypie.contrib.contenttypes.fields&#45;&gt;tests.namespaced.api.resources</title>
<path fill="none" stroke="#666666" d="M140.3,-481.92C159.22,-509.28 193.61,-552.8 217.76,-580.13"/>
<polygon fill="#666666" stroke="#666666" points="224.4,-587.49 214.36,-583.07 221.87,-584.68 217.7,-580.06 217.7,-580.06 217.7,-580.06 221.87,-584.68 221.04,-577.05 224.4,-587.49"/>
</g>
<!-- tastypie.utils.timezone -->
<g id="node14" class="node">
<title>tastypie.utils.timezone</title>
<g id="a_node14"><a xlink:title="tastypie.utils.timezone&#10;Incoming: 42&#10;Outgoing: 1&#10;Centrality: 0.223">
<ellipse fill="#ff6b6b" stroke="#ff6b6b" cx="740.39" cy="-409" rx="47.57" ry="18"/>
<text xml:space="preserve" text-anchor="middle" x="740.39" y="-403.57" font-family="Arial" font-size="14.00">timezone</text>
</a>
</g>
</g>
<!-- tastypie.contrib.contenttypes.fields&#45;&gt;tastypie.utils.timezone -->
<g id="edge10" class="edge">
<title>tastypie.contrib.contenttypes.fields&#45;&gt;tastypie.utils.timezone</title>
<path fill="none" stroke="#666666" d="M158.74,-455.45C511.08,-438.31 555.09,-435.82 684.76,-417.15"/>
<polygon fill="#666666" stroke="#666666" points="694.28,-415.77 685.03,-421.65 690.54,-416.31 684.39,-417.2 684.39,-417.2 684.39,-417.2 690.54,-416.31 683.74,-412.75 694.28,-415.77"/>
</g>
<!-- tastypie.api -->
<g id="node15" class="node">
<title>tastypie.api</title>
<g id="a_node15"><a xlink:title="tastypie.api&#10;Incoming: 32&#10;Outgoing: 10&#10;Centrality: 0.218">
<ellipse fill="#ff6b6b" stroke="#ff6b6b" cx="629.82" cy="-466" rx="27" ry="18"/>
<text xml:space="preserve" text-anchor="middle" x="629.82" y="-460.57" font-family="Arial" font-size="14.00">api</text>
</a>
</g>
</g>
<!-- tastypie.contrib.contenttypes.fields&#45;&gt;tastypie.api -->
<g id="edge8" class="edge">
<title>tastypie.contrib.contenttypes.fields&#45;&gt;tastypie.api</title>
<path fill="none" stroke="#666666" d="M155.99,-445.67C363.73,-365.21 382.8,-365.1 596.15,-452.21"/>
<polygon fill="#666666" stroke="#666666" points="605.33,-455.97 594.37,-456.35 601.83,-454.53 596.07,-452.18 596.07,-452.18 596.07,-452.18 601.83,-454.53 597.77,-448.02 605.33,-455.97"/>
</g>
<!-- tastypie.resources&#45;&gt;tastypie.contrib.contenttypes.fields -->
<g id="edge30" class="edge">
<title>tastypie.resources&#45;&gt;tastypie.contrib.contenttypes.fields</title>
<path fill="none" stroke="#666666" d="M158.8,-459.22C201.04,-465.87 276.02,-481.76 327,-494.58"/>
<polygon fill="#666666" stroke="#666666" points="336.63,-497.05 325.83,-498.92 332.97,-496.11 326.94,-494.56 326.94,-494.56 326.94,-494.56 332.97,-496.11 328.06,-490.21 336.63,-497.05"/>
</g>
<!-- tastypie.resources&#45;&gt;tastypie.resources -->
<g id="edge32" class="edge">
<title>tastypie.resources&#45;&gt;tastypie.resources</title>
<path fill="none" stroke="#666666" d="M380.62,-512C380.62,-512 380.62,-512 380.62,-512"/>
<polygon fill="#666666" stroke="#666666" points="381.48,-512.86 395.98,-518.36 385.62,-517 391.48,-522.86 391.48,-522.86 391.48,-522.86 385.62,-517 386.98,-527.36 381.48,-512.86"/>
</g>
<!-- tastypie.resources&#45;&gt;tastypie.contrib.gis.resources -->
<g id="edge31" class="edge">
<title>tastypie.resources&#45;&gt;tastypie.contrib.gis.resources</title>
<path fill="none" stroke="#666666" d="M400.69,-487.03C427.95,-446.43 475.7,-366.03 500.72,-318.85"/>
<polygon fill="#666666" stroke="#666666" points="505.28,-310.11 504.64,-321.06 503.53,-313.47 500.65,-318.98 500.65,-318.98 500.65,-318.98 503.53,-313.47 496.66,-316.9 505.28,-310.11"/>
</g>
<!-- tastypie.resources&#45;&gt;tastypie.utils.timezone -->
<g id="edge28" class="edge">
<title>tastypie.resources&#45;&gt;tastypie.utils.timezone</title>
<path fill="none" stroke="#666666" d="M429.2,-504.54C607.49,-477.03 636.23,-470.31 705.22,-430.04"/>
<polygon fill="#666666" stroke="#666666" points="713.72,-425.02 707.39,-433.98 710.46,-426.94 705.11,-430.1 705.11,-430.1 705.11,-430.1 710.46,-426.94 702.82,-426.23 713.72,-425.02"/>
</g>
<!-- tastypie.resources&#45;&gt;tastypie.api -->
<g id="edge29" class="edge">
<title>tastypie.resources&#45;&gt;tastypie.api</title>
<path fill="none" stroke="#666666" d="M430.55,-508.37C479.29,-501.26 552.18,-487.6 594.97,-477.42"/>
<polygon fill="#666666" stroke="#666666" points="604.5,-475.07 595.87,-481.83 600.83,-475.97 594.79,-477.46 594.79,-477.46 594.79,-477.46 600.83,-475.97 593.71,-473.09 604.5,-475.07"/>
</g>
<!-- tastypie.contrib.gis.resources&#45;&gt;tastypie.contrib.contenttypes.fields -->
<g id="edge34" class="edge">
<title>tastypie.contrib.gis.resources&#45;&gt;tastypie.contrib.contenttypes.fields</title>
<path fill="none" stroke="#666666" d="M152.78,-441.32C216.04,-408.86 379.03,-335.32 463.8,-300.58"/>
<polygon fill="#666666" stroke="#666666" points="472.85,-296.9 465.28,-304.83 469.35,-298.32 463.59,-300.66 463.59,-300.66 463.59,-300.66 469.35,-298.32 461.89,-296.49 472.85,-296.9"/>
</g>
<!-- tastypie.contrib.gis.resources&#45;&gt;tastypie.resources -->
<g id="edge37" class="edge">
<title>tastypie.contrib.gis.resources&#45;&gt;tastypie.resources</title>
<path fill="none" stroke="#666666" d="M391.52,-484.97C413.02,-442.97 460.53,-362.23 490.55,-316.23"/>
<polygon fill="#666666" stroke="#666666" points="496.01,-307.98 494.24,-318.81 493.92,-311.14 490.49,-316.32 490.49,-316.32 490.49,-316.32 493.92,-311.14 486.74,-313.84 496.01,-307.98"/>
</g>
<!-- tastypie.contrib.gis.resources&#45;&gt;tastypie.contrib.gis.resources -->
<g id="edge36" class="edge">
<title>tastypie.contrib.gis.resources&#45;&gt;tastypie.contrib.gis.resources</title>
<path fill="none" stroke="#666666" d="M516.75,-282C516.75,-282 516.75,-282 516.75,-282"/>
<polygon fill="#666666" stroke="#666666" points="517.61,-282.86 532.11,-288.36 521.75,-287 527.61,-292.86 527.61,-292.86 527.61,-292.86 521.75,-287 523.11,-297.36 517.61,-282.86"/>
</g>
<!-- tastypie.contrib.gis.resources&#45;&gt;tastypie.utils.timezone -->
<g id="edge35" class="edge">
<title>tastypie.contrib.gis.resources&#45;&gt;tastypie.utils.timezone</title>
<path fill="none" stroke="#666666" d="M561.18,-294.75C661.89,-324.03 679.79,-333.56 719.81,-382.95"/>
<polygon fill="#666666" stroke="#666666" points="725.95,-390.63 716.19,-385.64 723.59,-387.68 719.7,-382.82 719.7,-382.82 719.7,-382.82 723.59,-387.68 723.22,-380.01 725.95,-390.63"/>
</g>
<!-- tastypie.contrib.gis.resources&#45;&gt;tastypie.api -->
<g id="edge33" class="edge">
<title>tastypie.contrib.gis.resources&#45;&gt;tastypie.api</title>
<path fill="none" stroke="#666666" d="M546.63,-303.98C602.34,-345.83 609.93,-360.31 624.46,-437.04"/>
<polygon fill="#666666" stroke="#666666" points="626.24,-446.56 619.98,-437.56 625.55,-442.85 624.41,-436.74 624.41,-436.74 624.41,-436.74 625.55,-442.85 628.83,-435.91 626.24,-446.56"/>
</g>
<!-- tests.authorization.api.resources&#45;&gt;tastypie.contrib.contenttypes.fields -->
<g id="edge44" class="edge">
<title>tests.authorization.api.resources&#45;&gt;tastypie.contrib.contenttypes.fields</title>
<path fill="none" stroke="#666666" d="M131.71,-429.63C149.23,-361.85 205.3,-186.78 231.39,-118.16"/>
<polygon fill="#666666" stroke="#666666" points="235.01,-108.87 235.57,-119.82 233.64,-112.39 231.38,-118.18 231.38,-118.18 231.38,-118.18 233.64,-112.39 227.19,-116.55 235.01,-108.87"/>
</g>
<!-- tests.authorization.api.resources&#45;&gt;tastypie.resources -->
<g id="edge47" class="edge">
<title>tests.authorization.api.resources&#45;&gt;tastypie.resources</title>
<path fill="none" stroke="#666666" d="M259.81,-107.36C374.11,-237.16 380.13,-253.02 380.58,-473.34"/>
<polygon fill="#666666" stroke="#666666" points="380.59,-483.11 376.08,-473.12 380.59,-479.33 380.58,-473.11 380.58,-473.11 380.58,-473.11 380.59,-479.33 385.08,-473.1 380.59,-483.11"/>
</g>
<!-- tests.authorization.api.resources&#45;&gt;tastypie.contrib.gis.resources -->
<g id="edge46" class="edge">
<title>tests.authorization.api.resources&#45;&gt;tastypie.contrib.gis.resources</title>
<path fill="none" stroke="#666666" d="M285.23,-100.69C413.09,-134.68 430.95,-146.76 494.58,-246.77"/>
<polygon fill="#666666" stroke="#666666" points="499.82,-255.04 490.66,-249 497.79,-251.84 494.46,-246.59 494.46,-246.59 494.46,-246.59 497.79,-251.84 498.27,-244.18 499.82,-255.04"/>
</g>
<!-- tests.authorization.api.resources&#45;&gt;tastypie.utils.timezone -->
<g id="edge45" class="edge">
<title>tests.authorization.api.resources&#45;&gt;tastypie.utils.timezone</title>
<path fill="none" stroke="#666666" d="M289.31,-98.25C539.51,-144.67 557.35,-158.35 721.22,-382.72"/>
<polygon fill="#666666" stroke="#666666" points="726.89,-390.5 717.36,-385.07 724.66,-387.44 721,-382.42 721,-382.42 721,-382.42 724.66,-387.44 724.63,-379.77 726.89,-390.5"/>
</g>
<!-- tests.authorization.api.resources&#45;&gt;tastypie.api -->
<g id="edge43" class="edge">
<title>tests.authorization.api.resources&#45;&gt;tastypie.api</title>
<path fill="none" stroke="#666666" d="M278.17,-103.73C500.3,-194.51 513.35,-208.46 617.32,-438.32"/>
<polygon fill="#666666" stroke="#666666" points="621.35,-447.25 613.13,-439.99 619.79,-443.8 617.23,-438.14 617.23,-438.14 617.23,-438.14 619.79,-443.8 621.33,-436.28 621.35,-447.25"/>
</g>
<!-- tests.profilingtests.resources&#45;&gt;tastypie.contrib.contenttypes.fields -->
<g id="edge49" class="edge">
<title>tests.profilingtests.resources&#45;&gt;tastypie.contrib.contenttypes.fields</title>
<path fill="none" stroke="#666666" d="M130.61,-429.6C147.12,-351.1 207.41,-126 233.18,-46.34"/>
<polygon fill="#666666" stroke="#666666" points="236.19,-37.26 237.32,-48.16 235,-40.84 233.04,-46.75 233.04,-46.75 233.04,-46.75 235,-40.84 228.77,-45.33 236.19,-37.26"/>
</g>
<!-- tests.profilingtests.resources&#45;&gt;tastypie.resources -->
<g id="edge52" class="edge">
<title>tests.profilingtests.resources&#45;&gt;tastypie.resources</title>
<path fill="none" stroke="#666666" d="M258.67,-35.66C378.35,-184.94 383.47,-201.39 380.99,-473.25"/>
<polygon fill="#666666" stroke="#666666" points="380.9,-483.06 376.49,-473.02 380.94,-479.28 380.99,-473.06 380.99,-473.06 380.99,-473.06 380.94,-479.28 385.49,-473.11 380.9,-483.06"/>
</g>
<!-- tests.profilingtests.resources&#45;&gt;tastypie.contrib.gis.resources -->
<g id="edge51" class="edge">
<title>tests.profilingtests.resources&#45;&gt;tastypie.contrib.gis.resources</title>
<path fill="none" stroke="#666666" d="M278.4,-31.56C418.15,-87.86 433.1,-102.01 499.7,-245.13"/>
<polygon fill="#666666" stroke="#666666" points="503.86,-254.09 495.57,-246.92 502.27,-250.66 499.65,-245.02 499.65,-245.02 499.65,-245.02 502.27,-250.66 503.73,-243.13 503.86,-254.09"/>
</g>
<!-- tests.profilingtests.resources&#45;&gt;tastypie.utils.timezone -->
<g id="edge50" class="edge">
<title>tests.profilingtests.resources&#45;&gt;tastypie.utils.timezone</title>
<path fill="none" stroke="#666666" d="M285.12,-28.92C536.58,-96.84 552.8,-112.12 723.25,-381.86"/>
<polygon fill="#666666" stroke="#666666" points="728.47,-390.12 719.32,-384.06 726.45,-386.92 723.13,-381.66 723.13,-381.66 723.13,-381.66 726.45,-386.92 726.93,-379.26 728.47,-390.12"/>
</g>
<!-- tests.profilingtests.resources&#45;&gt;tastypie.api -->
<g id="edge48" class="edge">
<title>tests.profilingtests.resources&#45;&gt;tastypie.api</title>
<path fill="none" stroke="#666666" d="M274.59,-32.81C501.27,-144.61 512.73,-159.47 619.12,-437.98"/>
<polygon fill="#666666" stroke="#666666" points="622.68,-447.28 614.91,-439.55 621.33,-443.75 619.11,-437.94 619.11,-437.94 619.11,-437.94 621.33,-443.75 623.31,-436.34 622.68,-447.28"/>
</g>
<!-- tests.related_resource.api.resources&#45;&gt;tastypie.contrib.contenttypes.fields -->
<g id="edge4" class="edge">
<title>tests.related_resource.api.resources&#45;&gt;tastypie.contrib.contenttypes.fields</title>
<path fill="none" stroke="#666666" d="M138.38,-482.67C163.72,-552.18 221.66,-743.65 239.57,-816.94"/>
<polygon fill="#666666" stroke="#666666" points="241.81,-826.47 235.14,-817.77 240.94,-822.79 239.52,-816.74 239.52,-816.74 239.52,-816.74 240.94,-822.79 243.9,-815.71 241.81,-826.47"/>
</g>
<!-- tests.related_resource.api.resources&#45;&gt;tastypie.resources -->
<g id="edge7" class="edge">
<title>tests.related_resource.api.resources&#45;&gt;tastypie.resources</title>
<path fill="none" stroke="#666666" d="M261.94,-828.92C352.6,-739.87 359.46,-724.21 376.82,-550.57"/>
<polygon fill="#666666" stroke="#666666" points="377.8,-540.67 381.29,-551.06 377.43,-544.43 376.81,-550.62 376.81,-550.62 376.81,-550.62 377.43,-544.43 372.33,-550.17 377.8,-540.67"/>
</g>
<!-- tests.related_resource.api.resources&#45;&gt;tastypie.contrib.gis.resources -->
<g id="edge6" class="edge">
<title>tests.related_resource.api.resources&#45;&gt;tastypie.contrib.gis.resources</title>
<path fill="none" stroke="#666666" d="M262.81,-828.99C486.34,-621.47 496.11,-605.45 514.31,-320.66"/>
<polygon fill="#666666" stroke="#666666" points="514.94,-310.76 518.8,-321.02 514.7,-314.53 514.31,-320.74 514.31,-320.74 514.31,-320.74 514.7,-314.53 509.82,-320.45 514.94,-310.76"/>
</g>
<!-- tests.related_resource.api.resources&#45;&gt;tastypie.utils.timezone -->
<g id="edge5" class="edge">
<title>tests.related_resource.api.resources&#45;&gt;tastypie.utils.timezone</title>
<path fill="none" stroke="#666666" d="M282.04,-833.71C544.24,-747.59 559.22,-732.15 724.81,-436.8"/>
<polygon fill="#666666" stroke="#666666" points="729.67,-428.14 728.7,-439.06 727.82,-431.44 724.78,-436.86 724.78,-436.86 724.78,-436.86 727.82,-431.44 720.85,-434.66 729.67,-428.14"/>
</g>
<!-- tests.related_resource.api.resources&#45;&gt;tastypie.api -->
<g id="edge3" class="edge">
<title>tests.related_resource.api.resources&#45;&gt;tastypie.api</title>
<path fill="none" stroke="#666666" d="M277.31,-831.96C507.28,-733.37 520.29,-719.78 617.77,-493.95"/>
<polygon fill="#666666" stroke="#666666" points="621.7,-484.86 621.87,-495.82 620.2,-488.33 617.74,-494.04 617.74,-494.04 617.74,-494.04 620.2,-488.33 613.6,-492.26 621.7,-484.86"/>
</g>
<!-- tests.core.tests.resources&#45;&gt;tastypie.contrib.contenttypes.fields -->
<g id="edge59" class="edge">
<title>tests.core.tests.resources&#45;&gt;tastypie.contrib.contenttypes.fields</title>
<path fill="none" stroke="#666666" d="M144.27,-433.76C161.76,-415.45 188.97,-390.19 210.66,-371.96"/>
<polygon fill="#666666" stroke="#666666" points="218.34,-365.63 213.48,-375.46 215.42,-368.04 210.62,-371.99 210.62,-371.99 210.62,-371.99 215.42,-368.04 207.76,-368.52 218.34,-365.63"/>
</g>
<!-- tests.core.tests.resources&#45;&gt;tastypie.resources -->
<g id="edge62" class="edge">
<title>tests.core.tests.resources&#45;&gt;tastypie.resources</title>
<path fill="none" stroke="#666666" d="M268.07,-365.2C338.88,-414.07 353.08,-427.17 369,-474.35"/>
<polygon fill="#666666" stroke="#666666" points="372.07,-483.8 364.7,-475.68 370.9,-480.21 368.98,-474.29 368.98,-474.29 368.98,-474.29 370.9,-480.21 373.26,-472.9 372.07,-483.8"/>
</g>
<!-- tests.core.tests.resources&#45;&gt;tastypie.contrib.gis.resources -->
<g id="edge61" class="edge">
<title>tests.core.tests.resources&#45;&gt;tastypie.contrib.gis.resources</title>
<path fill="none" stroke="#666666" d="M281.82,-336.74C383.44,-303.44 418.14,-292.77 455.97,-287.5"/>
<polygon fill="#666666" stroke="#666666" points="465.57,-286.3 456.21,-292.01 461.82,-286.77 455.65,-287.54 455.65,-287.54 455.65,-287.54 461.82,-286.77 455.09,-283.08 465.57,-286.3"/>
</g>
<!-- tests.core.tests.resources&#45;&gt;tastypie.utils.timezone -->
<g id="edge60" class="edge">
<title>tests.core.tests.resources&#45;&gt;tastypie.utils.timezone</title>
<path fill="none" stroke="#666666" d="M294.46,-346.43C553.42,-333.25 584.69,-335.12 700.42,-389.81"/>
<polygon fill="#666666" stroke="#666666" points="709.29,-394.03 698.32,-393.8 705.87,-392.4 700.26,-389.73 700.26,-389.73 700.26,-389.73 705.87,-392.4 702.19,-385.67 709.29,-394.03"/>
</g>
<!-- tests.core.tests.resources&#45;&gt;tastypie.api -->
<g id="edge58" class="edge">
<title>tests.core.tests.resources&#45;&gt;tastypie.api</title>
<path fill="none" stroke="#666666" d="M292.88,-353.97C492.63,-374.7 516.15,-381.02 602.77,-445.61"/>
<polygon fill="#666666" stroke="#666666" points="610.67,-451.53 599.96,-449.14 607.64,-449.26 602.66,-445.53 602.66,-445.53 602.66,-445.53 607.64,-449.26 605.36,-441.93 610.67,-451.53"/>
</g>
<!-- tests.basic.api.resources&#45;&gt;tastypie.contrib.contenttypes.fields -->
<g id="edge64" class="edge">
<title>tests.basic.api.resources&#45;&gt;tastypie.contrib.contenttypes.fields</title>
<path fill="none" stroke="#666666" d="M132.79,-429.98C150.97,-371.12 203.21,-231.93 229.48,-172.1"/>
<polygon fill="#666666" stroke="#666666" points="233.57,-163.01 233.58,-173.97 232.02,-166.45 229.47,-172.13 229.47,-172.13 229.47,-172.13 232.02,-166.45 225.37,-170.28 233.57,-163.01"/>
</g>
<!-- tests.basic.api.resources&#45;&gt;tastypie.resources -->
<g id="edge67" class="edge">
<title>tests.basic.api.resources&#45;&gt;tastypie.resources</title>
<path fill="none" stroke="#666666" d="M260.85,-161.21C369.74,-275.99 376.69,-291.44 379.98,-473.26"/>
<polygon fill="#666666" stroke="#666666" points="380.15,-483.1 375.48,-473.18 380.08,-479.32 379.98,-473.11 379.98,-473.11 379.98,-473.11 380.08,-479.32 384.47,-473.03 380.15,-483.1"/>
</g>
<!-- tests.basic.api.resources&#45;&gt;tastypie.contrib.gis.resources -->
<g id="edge66" class="edge">
<title>tests.basic.api.resources&#45;&gt;tastypie.contrib.gis.resources</title>
<path fill="none" stroke="#666666" d="M291.06,-150.98C408.84,-169.13 429.47,-178.7 488.9,-248.62"/>
<polygon fill="#666666" stroke="#666666" points="495.17,-256.04 485.28,-251.3 492.73,-253.15 488.72,-248.4 488.72,-248.4 488.72,-248.4 492.73,-253.15 492.16,-245.5 495.17,-256.04"/>
</g>
<!-- tests.basic.api.resources&#45;&gt;tastypie.utils.timezone -->
<g id="edge65" class="edge">
<title>tests.basic.api.resources&#45;&gt;tastypie.utils.timezone</title>
<path fill="none" stroke="#666666" d="M292.35,-149.86C542.18,-180.81 561.6,-192.91 718.84,-382.92"/>
<polygon fill="#666666" stroke="#666666" points="725.17,-390.57 715.33,-385.73 722.76,-387.66 718.8,-382.86 718.8,-382.86 718.8,-382.86 722.76,-387.66 722.26,-380 725.17,-390.57"/>
</g>
<!-- tests.basic.api.resources&#45;&gt;tastypie.api -->
<g id="edge63" class="edge">
<title>tests.basic.api.resources&#45;&gt;tastypie.api</title>
<path fill="none" stroke="#666666" d="M281.03,-156.56C499.51,-231.95 513.9,-244.91 615.7,-439.03"/>
<polygon fill="#666666" stroke="#666666" points="620.21,-447.64 611.59,-440.87 618.46,-444.29 615.57,-438.78 615.57,-438.78 615.57,-438.78 618.46,-444.29 619.56,-436.69 620.21,-447.64"/>
</g>
<!-- tests.validation.api.resources&#45;&gt;tastypie.contrib.contenttypes.fields -->
<g id="edge39" class="edge">
<title>tests.validation.api.resources&#45;&gt;tastypie.contrib.contenttypes.fields</title>
<path fill="none" stroke="#666666" d="M158.14,-450.95C166.87,-450.47 176.63,-450.24 186.37,-450.25"/>
<polygon fill="#666666" stroke="#666666" points="196.09,-450.36 186.04,-454.75 192.3,-450.31 186.09,-450.25 186.09,-450.25 186.09,-450.25 192.3,-450.31 186.13,-445.75 196.09,-450.36"/>
</g>
<!-- tests.validation.api.resources&#45;&gt;tastypie.resources -->
<g id="edge42" class="edge">
<title>tests.validation.api.resources&#45;&gt;tastypie.resources</title>
<path fill="none" stroke="#666666" d="M281.76,-469.24C307.17,-477.64 322.81,-483.04 334.85,-487.93"/>
<polygon fill="#666666" stroke="#666666" points="343.94,-491.86 332.98,-492.03 340.47,-490.36 334.76,-487.89 334.76,-487.89 334.76,-487.89 340.47,-490.36 336.55,-483.76 343.94,-491.86"/>
</g>
<!-- tests.validation.api.resources&#45;&gt;tastypie.contrib.gis.resources -->
<g id="edge41" class="edge">
<title>tests.validation.api.resources&#45;&gt;tastypie.contrib.gis.resources</title>
<path fill="none" stroke="#666666" d="M272.27,-441.7C409.58,-366.09 438.11,-349.61 481.71,-312.65"/>
<polygon fill="#666666" stroke="#666666" points="489.14,-306.28 484.48,-316.21 486.27,-308.74 481.55,-312.79 481.55,-312.79 481.55,-312.79 486.27,-308.74 478.62,-309.38 489.14,-306.28"/>
</g>
<!-- tests.validation.api.resources&#45;&gt;tastypie.utils.timezone -->
<g id="edge40" class="edge">
<title>tests.validation.api.resources&#45;&gt;tastypie.utils.timezone</title>
<path fill="none" stroke="#666666" d="M293.9,-453.73C548.5,-436.86 591.08,-433.52 685.5,-418.16"/>
<polygon fill="#666666" stroke="#666666" points="695.15,-416.58 686.01,-422.64 691.42,-417.19 685.28,-418.19 685.28,-418.19 685.28,-418.19 691.42,-417.19 684.55,-413.75 695.15,-416.58"/>
</g>
<!-- tests.validation.api.resources&#45;&gt;tastypie.api -->
<g id="edge38" class="edge">
<title>tests.validation.api.resources&#45;&gt;tastypie.api</title>
<path fill="none" stroke="#666666" d="M294.66,-456.06C485.46,-452.51 515.84,-452.7 591.77,-461.45"/>
<polygon fill="#666666" stroke="#666666" points="601.6,-462.6 591.14,-465.91 597.84,-462.16 591.66,-461.44 591.66,-461.44 591.66,-461.44 597.84,-462.16 592.19,-456.97 601.6,-462.6"/>
</g>
<!-- tests.slashless.api.resources&#45;&gt;tastypie.contrib.contenttypes.fields -->
<g id="edge54" class="edge">
<title>tests.slashless.api.resources&#45;&gt;tastypie.contrib.contenttypes.fields</title>
<path fill="none" stroke="#666666" d="M151.33,-439.4C163.85,-432.69 179.54,-425.17 194.46,-418.66"/>
<polygon fill="#666666" stroke="#666666" points="203.49,-414.81 196.06,-422.87 200.02,-416.29 194.29,-418.73 194.29,-418.73 194.29,-418.73 200.02,-416.29 192.53,-414.59 203.49,-414.81"/>
</g>
<!-- tests.slashless.api.resources&#45;&gt;tastypie.resources -->
<g id="edge57" class="edge">
<title>tests.slashless.api.resources&#45;&gt;tastypie.resources</title>
<path fill="none" stroke="#666666" d="M272.81,-418.06C324.54,-445.73 342.01,-456.67 357.68,-476.85"/>
<polygon fill="#666666" stroke="#666666" points="363.42,-484.8 353.91,-479.33 361.2,-481.74 357.56,-476.7 357.56,-476.7 357.56,-476.7 361.2,-481.74 361.21,-474.06 363.42,-484.8"/>
</g>
<!-- tests.slashless.api.resources&#45;&gt;tastypie.contrib.gis.resources -->
<g id="edge56" class="edge">
<title>tests.slashless.api.resources&#45;&gt;tastypie.contrib.gis.resources</title>
<path fill="none" stroke="#666666" d="M276.06,-388.91C393.8,-336.36 426.91,-321.6 467.35,-303.75"/>
<polygon fill="#666666" stroke="#666666" points="476.44,-299.74 469.11,-307.9 472.98,-301.27 467.29,-303.78 467.29,-303.78 467.29,-303.78 472.98,-301.27 465.47,-299.66 476.44,-299.74"/>
</g>
<!-- tests.slashless.api.resources&#45;&gt;tastypie.utils.timezone -->
<g id="edge55" class="edge">
<title>tests.slashless.api.resources&#45;&gt;tastypie.utils.timezone</title>
<path fill="none" stroke="#666666" d="M294.27,-399.77C547.03,-383.44 588.22,-382.14 686.1,-399.1"/>
<polygon fill="#666666" stroke="#666666" points="695.84,-400.81 685.21,-403.51 692.12,-400.16 685.99,-399.08 685.99,-399.08 685.99,-399.08 692.12,-400.16 686.77,-394.65 695.84,-400.81"/>
</g>
<!-- tests.slashless.api.resources&#45;&gt;tastypie.api -->
<g id="edge53" class="edge">
<title>tests.slashless.api.resources&#45;&gt;tastypie.api</title>
<path fill="none" stroke="#666666" d="M294.45,-405.06C488.88,-413.18 516.1,-416.64 596.86,-451.5"/>
<polygon fill="#666666" stroke="#666666" points="605.87,-455.43 594.91,-455.56 602.4,-453.92 596.7,-451.43 596.7,-451.43 596.7,-451.43 602.4,-453.92 598.5,-447.31 605.87,-455.43"/>
</g>
<!-- tests.gis.api.resources&#45;&gt;tastypie.contrib.contenttypes.fields -->
<g id="edge69" class="edge">
<title>tests.gis.api.resources&#45;&gt;tastypie.contrib.contenttypes.fields</title>
<path fill="none" stroke="#666666" d="M145.33,-479.59C170.21,-516.71 213.16,-590.4 233.52,-630.86"/>
<polygon fill="#666666" stroke="#666666" points="237.87,-639.76 229.44,-632.76 236.21,-636.37 233.48,-630.78 233.48,-630.78 233.48,-630.78 236.21,-636.37 237.52,-628.8 237.87,-639.76"/>
</g>
<!-- tests.gis.api.resources&#45;&gt;tastypie.resources -->
<g id="edge72" class="edge">
<title>tests.gis.api.resources&#45;&gt;tastypie.resources</title>
<path fill="none" stroke="#666666" d="M273.71,-644.23C333.85,-613.38 346.23,-601.82 366.8,-549.15"/>
<polygon fill="#666666" stroke="#666666" points="370.31,-539.96 370.95,-550.9 368.96,-543.49 366.74,-549.3 366.74,-549.3 366.74,-549.3 368.96,-543.49 362.54,-547.69 370.31,-539.96"/>
</g>
<!-- tests.gis.api.resources&#45;&gt;tastypie.contrib.gis.resources -->
<g id="edge71" class="edge">
<title>tests.gis.api.resources&#45;&gt;tastypie.contrib.gis.resources</title>
<path fill="none" stroke="#666666" d="M265.29,-642.32C458.52,-487.3 473.58,-471.08 508.23,-319.83"/>
<polygon fill="#666666" stroke="#666666" points="510.38,-310.38 512.55,-321.13 509.54,-314.06 508.16,-320.13 508.16,-320.13 508.16,-320.13 509.54,-314.06 503.77,-319.13 510.38,-310.38"/>
</g>
<!-- tests.gis.api.resources&#45;&gt;tastypie.utils.timezone -->
<g id="edge70" class="edge">
<title>tests.gis.api.resources&#45;&gt;tastypie.utils.timezone</title>
<path fill="none" stroke="#666666" d="M291.56,-652.45C557.1,-615.2 576.9,-604.49 718.78,-434.89"/>
<polygon fill="#666666" stroke="#666666" points="725.07,-427.37 722.11,-437.93 722.64,-430.27 718.65,-435.04 718.65,-435.04 718.65,-435.04 722.64,-430.27 715.2,-432.16 725.07,-427.37"/>
</g>
<!-- tests.gis.api.resources&#45;&gt;tastypie.api -->
<g id="edge68" class="edge">
<title>tests.gis.api.resources&#45;&gt;tastypie.api</title>
<path fill="none" stroke="#666666" d="M287.09,-649.15C500.71,-599.57 520.8,-590.22 608.67,-490.22"/>
<polygon fill="#666666" stroke="#666666" points="615.16,-482.81 611.96,-493.3 612.67,-485.65 608.57,-490.33 608.57,-490.33 608.57,-490.33 612.67,-485.65 605.19,-487.37 615.16,-482.81"/>
</g>
<!-- tests.namespaced.api.resources&#45;&gt;tastypie.contrib.contenttypes.fields -->
<g id="edge74" class="edge">
<title>tests.namespaced.api.resources&#45;&gt;tastypie.contrib.contenttypes.fields</title>
<path fill="none" stroke="#666666" d="M148.75,-476.52C172.41,-502.62 209.16,-548.8 229.66,-578.15"/>
<polygon fill="#666666" stroke="#666666" points="235.02,-586.03 225.68,-580.29 232.9,-582.9 229.4,-577.76 229.4,-577.76 229.4,-577.76 232.9,-582.9 233.12,-575.23 235.02,-586.03"/>
</g>
<!-- tests.namespaced.api.resources&#45;&gt;tastypie.resources -->
<g id="edge77" class="edge">
<title>tests.namespaced.api.resources&#45;&gt;tastypie.resources</title>
<path fill="none" stroke="#666666" d="M282.13,-592.92C325.7,-578.44 340.38,-570.27 357.74,-546.82"/>
<polygon fill="#666666" stroke="#666666" points="363.35,-538.85 361.27,-549.62 361.17,-541.95 357.59,-547.03 357.59,-547.03 357.59,-547.03 361.17,-541.95 353.91,-544.44 363.35,-538.85"/>
</g>
<!-- tests.namespaced.api.resources&#45;&gt;tastypie.contrib.gis.resources -->
<g id="edge76" class="edge">
<title>tests.namespaced.api.resources&#45;&gt;tastypie.contrib.gis.resources</title>
<path fill="none" stroke="#666666" d="M266.33,-588.55C447.16,-452.3 464.85,-435.75 504.25,-319.6"/>
<polygon fill="#666666" stroke="#666666" points="507.36,-310.34 508.44,-321.25 506.16,-313.92 504.17,-319.81 504.17,-319.81 504.17,-319.81 506.16,-313.92 499.91,-318.38 507.36,-310.34"/>
</g>
<!-- tests.namespaced.api.resources&#45;&gt;tastypie.utils.timezone -->
<g id="edge75" class="edge">
<title>tests.namespaced.api.resources&#45;&gt;tastypie.utils.timezone</title>
<path fill="none" stroke="#666666" d="M293.11,-600.1C561.78,-572.81 583.88,-564.24 715.72,-433.54"/>
<polygon fill="#666666" stroke="#666666" points="722.46,-426.86 718.53,-437.1 719.77,-429.52 715.36,-433.91 715.36,-433.91 715.36,-433.91 719.77,-429.52 712.19,-430.71 722.46,-426.86"/>
</g>
<!-- tests.namespaced.api.resources&#45;&gt;tastypie.api -->
<g id="edge73" class="edge">
<title>tests.namespaced.api.resources&#45;&gt;tastypie.api</title>
<path fill="none" stroke="#666666" d="M289.86,-597.04C496.54,-560.64 519.99,-553.21 603.69,-486.91"/>
<polygon fill="#666666" stroke="#666666" points="611.31,-480.85 606.28,-490.6 608.35,-483.2 603.48,-487.07 603.48,-487.07 603.48,-487.07 608.35,-483.2 600.68,-483.55 611.31,-480.85"/>
</g>
<!-- tests.related_resource.tests -->
<g id="node13" class="node">
<title>tests.related_resource.tests</title>
<g id="a_node13"><a xlink:title="tests.related_resource.tests&#10;Incoming: 0&#10;Outgoing: 43&#10;Centrality: 0.223">
<ellipse fill="#90ee90" stroke="#90ee90" cx="29.61" cy="-508" rx="29.61" ry="18"/>
<text xml:space="preserve" text-anchor="middle" x="29.61" y="-502.57" font-family="Arial" font-size="14.00">tests</text>
</a>
</g>
</g>
<!-- tests.related_resource.tests&#45;&gt;tastypie.contrib.contenttypes.fields -->
<g id="edge23" class="edge">
<title>tests.related_resource.tests&#45;&gt;tastypie.contrib.contenttypes.fields</title>
<path fill="none" stroke="#666666" d="M48.1,-493.5C57.53,-486.88 67.06,-482.06 87.75,-473.24"/>
<polygon fill="#666666" stroke="#666666" points="96.95,-469.36 89.48,-477.39 93.47,-470.83 87.74,-473.25 87.74,-473.25 87.74,-473.25 93.47,-470.83 85.99,-469.1 96.95,-469.36"/>
</g>
<!-- tests.related_resource.tests&#45;&gt;tastypie.resources -->
<g id="edge26" class="edge">
<title>tests.related_resource.tests&#45;&gt;tastypie.resources</title>
<path fill="none" stroke="#666666" d="M57.27,-515.14C133.6,-534.42 157.37,-534.72 320.05,-518.22"/>
<polygon fill="#666666" stroke="#666666" points="329.76,-517.23 320.27,-522.72 326,-517.61 319.81,-518.24 319.81,-518.24 319.81,-518.24 326,-517.61 319.36,-513.76 329.76,-517.23"/>
</g>
<!-- tests.related_resource.tests&#45;&gt;tastypie.contrib.gis.resources -->
<g id="edge25" class="edge">
<title>tests.related_resource.tests&#45;&gt;tastypie.contrib.gis.resources</title>
<path fill="none" stroke="#666666" d="M44.73,-492.5C163.33,-371.23 181.42,-361.33 459.73,-295.45"/>
<polygon fill="#666666" stroke="#666666" points="469.41,-293.16 460.72,-299.84 465.73,-294.03 459.68,-295.46 459.68,-295.46 459.68,-295.46 465.73,-294.03 458.65,-291.08 469.41,-293.16"/>
</g>
<!-- tests.related_resource.tests&#45;&gt;tests.related_resource.api.resources -->
<g id="edge27" class="edge">
<title>tests.related_resource.tests&#45;&gt;tests.related_resource.api.resources</title>
<path fill="none" stroke="#666666" d="M33.63,-526.21C75.92,-717.5 82.82,-733.95 212.07,-823.65"/>
<polygon fill="#666666" stroke="#666666" points="220.17,-829.26 209.39,-827.26 217.06,-827.1 211.95,-823.56 211.95,-823.56 211.95,-823.56 217.06,-827.1 214.51,-819.86 220.17,-829.26"/>
</g>
<!-- tests.related_resource.tests&#45;&gt;tastypie.utils.timezone -->
<g id="edge24" class="edge">
<title>tests.related_resource.tests&#45;&gt;tastypie.utils.timezone</title>
<path fill="none" stroke="#666666" d="M56.87,-515.61C329.09,-591.42 349.87,-589.1 699.65,-427.81"/>
<polygon fill="#666666" stroke="#666666" points="708.72,-423.62 701.52,-431.9 705.29,-425.21 699.64,-427.81 699.64,-427.81 699.64,-427.81 705.29,-425.21 697.75,-423.73 708.72,-423.62"/>
</g>
<!-- tests.related_resource.tests&#45;&gt;tastypie.api -->
<g id="edge22" class="edge">
<title>tests.related_resource.tests&#45;&gt;tastypie.api</title>
<path fill="none" stroke="#666666" d="M57.08,-515.52C233.02,-563.38 254.92,-560.92 593.5,-475.2"/>
<polygon fill="#666666" stroke="#666666" points="602.95,-472.81 594.36,-479.63 599.28,-473.74 593.26,-475.26 593.26,-475.26 593.26,-475.26 599.28,-473.74 592.15,-470.9 602.95,-472.81"/>
</g>
<!-- tastypie.api&#45;&gt;tastypie.resources -->
<g id="edge2" class="edge">
<title>tastypie.api&#45;&gt;tastypie.resources</title>
<path fill="none" stroke="#666666" d="M424.58,-498.46C471.85,-487.71 546.25,-474.09 591.29,-468.03"/>
<polygon fill="#666666" stroke="#666666" points="601.15,-466.78 591.79,-472.5 597.39,-467.25 591.22,-468.04 591.22,-468.04 591.22,-468.04 597.39,-467.25 590.66,-463.57 601.15,-466.78"/>
</g>
<!-- tastypie.api&#45;&gt;tastypie.utils.timezone -->
<g id="edge1" class="edge">
<title>tastypie.api&#45;&gt;tastypie.utils.timezone</title>
<path fill="none" stroke="#666666" d="M654.13,-457.47C686.69,-445.96 701.42,-440.15 713.29,-432.3"/>
<polygon fill="#666666" stroke="#666666" points="721.08,-426.5 715.74,-436.08 718.04,-428.76 713.05,-432.47 713.05,-432.47 713.05,-432.47 718.04,-428.76 710.37,-428.86 721.08,-426.5"/>
</g>
</g>
</svg>
